<?xml version="1.0" standalone="no"?>
<!DOCTYPE svg PUBLIC "-//W3C//DTD SVG 20010904//EN"
 "http://www.w3.org/TR/2001/REC-SVG-20010904/DTD/svg10.dtd">
<svg version="1.0" xmlns="http://www.w3.org/2000/svg"
 width="3000.000000pt" height="2000.000000pt" viewBox="0 0 3000.000000 2000.000000"
 preserveAspectRatio="xMidYMid meet">
<metadata>
Created by potrace 1.16, written by Peter Selinger 2001-2019
</metadata>
<g transform="translate(0.000000,2000.000000) scale(0.100000,-0.100000)"
fill="#000000" stroke="none">
<path d="M9930 19578 l0 -413 -347 3 c-525 5 -612 -11 -798 -143 -152 -108
-274 -334 -275 -507 l0 -48 6495 0 6495 0 0 53 c0 60 -20 144 -52 220 -72 170
-228 317 -407 381 -105 38 -210 46 -608 46 l-353 0 0 410 0 410 -100 0 -100 0
-2 -410 -3 -410 -4870 0 -4870 0 -3 410 -2 410 -100 0 -100 0 0 -412z"/>
<path d="M22667 16533 c-4 -3 -7 -30 -7 -60 l0 -53 200 0 200 0 0 -1110 0
-1110 -200 0 -200 0 0 -55 0 -55 200 0 200 0 0 -957 0 -958 -200 2 -200 3 0
-60 0 -60 2510 0 2511 0 -3 58 -3 57 -193 3 -192 2 2 953 3 952 193 3 192 2 0
55 0 55 -195 0 -195 0 0 1110 0 1110 195 0 196 0 -3 58 -3 57 -2501 3 c-1375
1 -2504 -1 -2507 -5z m4504 -117 c2 -2 3 -502 1 -1110 l-2 -1106 -1995 0
-1995 0 0 1110 0 1110 1993 0 c1097 0 1996 -2 1998 -4z m-1 -3284 l0 -958
-1995 0 -1995 0 0 958 0 958 1995 0 1995 0 0 -958z"/>
<path d="M23704 15927 c-3 -8 -4 -54 -2 -103 l3 -89 180 0 180 0 3 94 c2 69
-1 97 -10 103 -7 4 -89 8 -181 8 -130 0 -169 -3 -173 -13z"/>
<path d="M24564 15927 c-3 -8 -4 -54 -2 -103 l3 -89 180 0 180 0 3 88 c2 57
-1 94 -9 103 -16 20 -347 21 -355 1z"/>
<path d="M25464 15927 c-2 -7 -4 -54 -2 -103 l3 -89 180 0 180 0 0 100 0 100
-178 3 c-142 2 -178 0 -183 -11z"/>
<path d="M26327 15933 c-4 -3 -7 -51 -7 -105 l0 -98 183 2 182 3 3 80 c5 135
20 125 -182 125 -95 0 -176 -3 -179 -7z"/>
<path d="M24500 14865 l0 -466 25 -25 25 -25 196 3 c192 3 196 3 215 27 18 22
19 45 19 487 l0 464 -240 0 -240 0 0 -465z"/>
<path d="M23506 13018 c-11 -16 -16 -46 -16 -100 l0 -78 395 0 395 0 0 78 c0
54 -5 84 -16 100 l-15 22 -364 0 -364 0 -15 -22z"/>
<path d="M24367 13022 c-13 -14 -17 -38 -17 -100 l0 -82 75 0 75 0 0 -225 0
-226 25 -24 c24 -25 25 -25 218 -25 259 0 237 -25 237 273 l0 227 80 0 79 0
-2 83 c-1 54 -7 90 -16 100 -12 15 -51 17 -376 17 -338 0 -363 -1 -378 -18z"/>
<path d="M25266 13018 c-11 -16 -16 -46 -16 -99 l0 -76 122 -6 c66 -4 189 -7
273 -7 84 0 207 3 273 7 l122 6 0 76 c0 53 -5 83 -16 99 l-15 22 -364 0 -364
0 -15 -22z"/>
<path d="M26127 13022 c-13 -14 -17 -38 -17 -100 l0 -82 395 0 394 0 -2 83
c-1 54 -7 90 -16 100 -12 15 -51 17 -376 17 -338 0 -363 -1 -378 -18z"/>
<path d="M2477 16113 c6 -74 33 -181 60 -245 l26 -58 612 0 612 0 26 58 c30
67 53 152 62 235 l6 57 -704 0 -705 0 5 -47z"/>
<path d="M4433 15794 c-3 -7 -3 -107 -1 -221 3 -204 4 -209 32 -271 16 -34 43
-75 61 -90 17 -16 35 -34 39 -40 6 -10 -121 -12 -556 -12 -310 0 -881 0 -1270
0 l-708 0 0 -55 0 -55 2645 0 2645 0 0 55 0 55 -385 0 c-244 0 -385 4 -385 10
0 5 11 17 25 26 32 21 83 98 95 145 8 27 15 355 11 456 -1 10 -243 12 -1122
12 -955 0 -1121 -3 -1126 -15z"/>
<path d="M2517 14168 l2 -113 501 -3 500 -2 0 115 0 115 -502 0 -503 0 2 -112z"/>
<path d="M9776 14174 c-141 -35 -288 -147 -353 -269 -72 -137 -67 -61 -73
-1156 l-5 -985 -29 -44 c-16 -24 -42 -56 -59 -71 -67 -61 -23 -59 -1142 -59
l-1021 0 -23 55 c-69 165 -277 209 -407 86 -136 -129 -81 -369 98 -423 l38
-11 0 -1549 0 -1548 -110 0 -110 0 0 -275 0 -275 -335 0 -335 0 0 220 0 219
-72 3 -73 3 -3 598 -2 597 75 0 75 0 0 60 0 60 -75 0 -75 0 0 210 0 210 75 0
75 0 0 60 0 60 -215 0 -216 0 3 -57 3 -58 78 -3 c42 -2 77 -7 78 -12 1 -6 1
-21 1 -35 0 -14 0 -104 -1 -200 l-1 -175 -940 0 -940 0 0 385 0 386 -152 -3
-153 -3 0 -383 0 -382 -540 0 -540 0 3 210 3 210 79 0 80 0 0 60 0 60 -215 0
-215 0 0 -60 0 -60 75 0 75 0 0 -210 0 -210 -75 0 -75 0 0 -60 0 -60 75 0 75
0 0 -600 0 -600 -75 0 -75 0 0 -220 0 -220 -280 0 -280 0 0 -370 0 -370 13455
0 13455 0 0 370 0 370 -2269 0 -2269 0 -4 128 c-4 135 -12 161 -61 205 -11 9
-20 18 -21 19 -1 0 -73 4 -161 7 l-160 6 -3 413 c-2 325 0 413 10 416 154 44
246 75 303 103 206 103 355 274 430 494 131 383 -50 829 -412 1014 -59 31
-237 94 -305 109 l-28 6 0 170 0 170 -60 0 -60 0 0 -169 c0 -153 -2 -170 -17
-175 -227 -64 -341 -114 -437 -190 -52 -41 -132 -124 -174 -180 -46 -60 -110
-202 -132 -291 -20 -78 -22 -107 -17 -230 5 -153 22 -226 79 -340 84 -166 223
-307 383 -387 56 -28 267 -98 296 -98 18 0 19 -15 19 -419 l0 -420 -159 -3
c-154 -3 -160 -4 -186 -28 -48 -45 -55 -70 -55 -205 l0 -125 -422 0 -423 0 3
99 c6 174 -26 254 -121 300 -43 21 -51 21 -943 21 l-900 0 -53 -26 c-34 -17
-62 -41 -79 -67 -26 -38 -27 -48 -30 -184 l-3 -143 -415 0 -414 0 0 213 c0
117 -4 217 -9 222 -5 6 -60 98 -122 205 -161 278 -180 312 -177 316 2 1 44 29
93 62 182 120 322 267 428 449 236 406 234 931 -6 1331 -92 153 -242 317 -371
406 l-57 39 -52 -51 c-29 -28 -79 -64 -112 -79 -51 -24 -72 -28 -140 -27 -83
1 -180 29 -205 59 -7 8 -16 15 -20 15 -4 0 -28 -34 -53 -75 l-46 -74 37 -6
c261 -44 472 -177 611 -385 273 -408 163 -956 -246 -1230 -79 -53 -103 -60
-124 -34 -20 25 -105 64 -161 74 -35 7 -71 7 -112 -1 -120 -21 -199 -83 -275
-216 l-42 -73 -674 0 -675 0 0 -43 c0 -54 40 -137 83 -173 18 -15 55 -38 82
-50 l50 -24 478 0 c292 0 477 -4 477 -9 0 -6 -56 -106 -124 -223 l-123 -213
-659 -5 -659 -5 -48 -23 c-54 -27 -108 -89 -128 -147 -7 -22 -13 -82 -14 -132
l0 -93 -407 0 -408 0 0 138 0 137 -790 0 -790 0 0 -137 0 -138 -1137 0 -1138
0 3 252 c1 139 0 263 -3 276 l-5 22 -235 0 -235 0 0 86 c0 79 -2 85 -17 78
-10 -5 -45 -9 -78 -9 -33 0 -68 4 -77 9 -16 7 -18 1 -18 -78 l0 -86 -237 -2
-238 -3 -3 -272 -2 -273 -445 0 -445 0 0 275 0 275 -1255 0 -1255 0 0 1548 0
1549 42 12 c54 17 139 101 157 159 l14 42 1018 0 c993 0 1018 0 1082 20 84 26
164 96 204 178 l28 57 5 990 c5 987 5 990 27 1043 64 157 187 267 334 301 57
14 581 14 638 0 118 -27 253 -130 304 -231 59 -119 57 -63 57 -1370 l0 -1198
40 0 40 0 0 1193 c0 1303 1 1264 -59 1389 -57 120 -181 229 -316 280 -56 21
-78 22 -360 25 -235 1 -313 -1 -359 -13z m-6321 -5262 c0 -207 3 -388 7 -402
11 -39 66 -89 111 -101 50 -13 110 7 153 52 l29 30 3 400 3 399 942 0 942 0
-3 -600 -2 -600 -1630 0 -1630 0 -2 600 -3 600 540 0 540 0 0 -378z m15023
-88 c36 -24 62 -74 62 -123 0 -108 -107 -172 -207 -124 -49 23 -73 66 -73 130
0 44 5 58 31 88 48 54 128 67 187 29z"/>
<path d="M4240 13645 l0 -115 439 0 c342 0 440 3 443 13 2 6 2 58 0 115 l-4
102 -439 0 -439 0 0 -115z"/>
<path d="M5839 13265 c-1 -52 -2 -101 -3 -107 -1 -19 367 -32 652 -23 l232 7
0 109 0 109 -440 0 -440 0 -1 -95z"/>
<path d="M2032 12425 l3 -55 2643 -3 2642 -2 0 58 0 57 -2645 0 -2646 0 3 -55z"/>
<path d="M11803 12106 c-87 -28 -157 -90 -197 -175 -21 -45 -21 -61 -26 -716
l-5 -670 -27 -57 c-48 -103 -141 -183 -241 -209 -26 -6 -47 -13 -47 -16 0 -2
7 -18 16 -35 13 -26 20 -29 45 -24 55 11 139 57 194 108 66 60 120 163 135
258 6 39 10 316 10 680 0 687 -2 657 71 727 66 63 69 63 493 63 l384 0 53 -28
c60 -31 102 -84 118 -149 7 -28 11 -306 11 -833 l0 -792 34 -34 34 -34 199 0
c231 0 252 6 291 80 21 42 22 55 22 281 0 254 1 258 51 274 29 10 84 -3 100
-22 11 -12 15 -78 19 -274 l5 -257 25 -27 c38 -40 73 -55 133 -55 65 0 113 28
139 80 16 30 18 66 18 265 0 127 3 240 6 252 12 43 95 53 126 16 10 -12 14
-84 18 -274 l5 -257 25 -27 c77 -82 191 -70 241 25 17 31 19 60 19 271 0 216
2 239 19 260 26 32 86 32 112 0 18 -22 19 -48 19 -458 l0 -434 38 3 37 3 0
440 c0 435 0 440 -22 475 -29 47 -71 70 -128 70 -54 0 -103 -25 -131 -68 -17
-24 -19 -53 -22 -279 l-3 -253 -26 -20 c-28 -22 -56 -19 -85 9 -16 15 -18 44
-20 261 -3 218 -5 248 -21 275 -29 48 -76 75 -131 75 -57 0 -97 -19 -128 -62
-22 -32 -23 -40 -26 -285 -3 -225 -5 -253 -21 -267 -21 -19 -78 -26 -107 -13
-40 17 -44 47 -44 299 l0 241 -45 44 -45 45 -74 -4 c-63 -3 -79 -7 -102 -28
-50 -47 -54 -70 -54 -322 0 -195 -3 -237 -16 -256 -15 -21 -20 -22 -210 -22
-107 0 -195 1 -196 3 -2 1 -5 374 -8 828 l-5 826 -37 59 c-42 68 -105 116
-181 139 -69 20 -769 21 -834 1z"/>
<path d="M18595 11214 c-89 -45 -99 -160 -21 -233 20 -19 40 -26 85 -29 54 -4
60 -2 94 28 130 113 -4 311 -158 234z"/>
<path d="M3080 9890 l0 -60 130 0 130 0 0 60 0 60 -130 0 -130 0 0 -60z"/>
<path d="M3880 9890 l0 -60 130 0 130 0 0 60 0 60 -130 0 -130 0 0 -60z"/>
<path d="M4680 9890 l0 -60 130 0 130 0 0 60 0 60 -130 0 -130 0 0 -60z"/>
<path d="M17040 9794 c-29 -47 -50 -87 -49 -88 28 -24 292 -175 299 -171 18
11 102 167 94 175 -15 14 -276 170 -285 170 -4 0 -31 -39 -59 -86z"/>
<path d="M10618 9803 c-42 -48 -33 -113 18 -138 61 -29 112 -1 121 65 5 33 2
45 -17 65 -29 31 -98 35 -122 8z"/>
<path d="M26032 9701 c3 -84 5 -92 33 -122 54 -57 67 -59 373 -59 l278 0 41
26 c58 38 76 74 81 166 l5 78 -408 0 -407 0 4 -89z"/>
<path d="M11290 9744 c0 -7 -17 -19 -39 -27 -21 -9 -69 -30 -106 -48 -38 -17
-116 -45 -174 -61 -202 -55 -252 -62 -473 -62 -218 -1 -238 -5 -196 -43 14
-12 18 -13 13 -3 -8 13 -7 13 8 1 18 -14 104 -15 798 -12 221 1 237 2 257 21
23 22 32 25 32 11 0 -5 -9 -13 -20 -16 -11 -3 -20 -11 -20 -16 0 -17 41 11 52
37 9 18 8 31 -2 52 -7 15 -13 31 -12 35 1 4 -5 10 -13 13 -8 3 -12 10 -9 15 3
5 1 9 -5 9 -5 0 -12 -6 -15 -12 -3 -7 -3 -3 -1 9 3 12 1 24 -5 28 -6 3 -8 10
-6 14 3 4 -6 20 -20 36 -14 16 -24 22 -24 14 0 -11 -2 -11 -10 1 -5 8 -10 10
-10 4z"/>
<path d="M12155 9658 c-3 -13 -5 -66 -3 -118 l3 -95 210 0 210 0 3 95 c5 154
26 140 -213 140 -204 0 -205 0 -210 -22z"/>
<path d="M21530 9445 c0 -23 3 -24 68 -27 37 -2 104 -2 150 0 79 3 82 4 82 28
l0 24 -150 0 -150 0 0 -25z"/>
<path d="M21530 9216 c0 -14 5 -28 11 -31 6 -4 73 -4 150 0 138 7 139 7 139
31 l0 24 -150 0 -150 0 0 -24z"/>
<path d="M21534 8997 c-3 -10 -3 -24 0 -33 5 -13 26 -14 148 -10 135 4 143 5
146 25 3 18 -2 21 -36 21 -21 0 -87 3 -145 7 -94 5 -107 4 -113 -10z"/>
<path d="M14346 8938 c-14 -24 -278 -480 -373 -646 -58 -102 -65 -138 -32
-168 20 -18 46 -19 533 -22 351 -1 519 1 538 9 14 6 32 24 38 40 14 32 11 40
-77 189 -39 67 -188 324 -342 592 l-16 28 -127 0 c-121 0 -128 -1 -142 -22z"/>
<path d="M25680 8785 l0 -25 755 0 755 0 0 25 0 25 -755 0 -755 0 0 -25z"/>
<path d="M21530 8750 c0 -29 2 -30 43 -30 24 0 92 3 150 7 91 5 107 9 107 23
0 14 -16 18 -107 23 -58 4 -126 7 -150 7 -41 0 -43 -1 -43 -30z"/>
<path d="M26343 8612 l-663 -2 0 -25 0 -25 755 0 755 0 0 25 c0 25 -1 25 -79
25 -44 0 -85 1 -93 3 -7 1 -311 1 -675 -1z"/>
<path d="M21530 8521 l0 -31 150 0 150 0 0 25 c0 14 -6 25 -12 25 -7 1 -75 3
-150 6 l-138 5 0 -30z"/>
<path d="M25680 8395 l0 -25 333 -1 c182 0 515 -2 738 -5 223 -3 413 -2 422 2
9 3 17 17 17 30 l0 24 -755 0 -755 0 0 -25z"/>
<path d="M21534 8311 c-2 -2 -4 -15 -4 -28 l0 -23 150 0 150 0 0 25 0 25 -112
2 c-62 0 -128 1 -146 2 -19 1 -36 -1 -38 -3z"/>
<path d="M14889 6191 c-21 -22 -29 -39 -29 -66 0 -82 103 -126 164 -70 37 35
37 105 0 140 -39 36 -96 34 -135 -4z"/>
<path d="M14908 4934 c-69 -37 -63 -135 9 -169 99 -47 182 78 104 156 -33 33
-70 37 -113 13z"/>
<path d="M5785 4273 c17 -96 109 -198 201 -223 63 -18 160 -9 218 20 61 31
120 97 140 157 31 90 54 83 -275 83 l-291 0 7 -37z"/>
<path d="M23655 4273 c25 -134 131 -224 273 -231 66 -4 79 -1 137 27 73 36
126 93 150 161 31 86 53 80 -276 80 l-291 0 7 -37z"/>
<path d="M14899 3657 c-70 -54 -35 -177 51 -177 64 0 99 34 100 98 0 59 -33
92 -92 92 -24 0 -50 -6 -59 -13z"/>
<path d="M14889 2371 c-31 -32 -38 -75 -17 -114 18 -35 40 -46 86 -47 60 0 92
32 92 94 0 37 -5 48 -31 70 -43 36 -91 35 -130 -3z"/>
<path d="M2530 1270 l0 -240 358 0 c201 0 385 5 422 11 204 33 360 215 360
421 l0 48 -570 0 -570 0 0 -240z"/>
<path d="M26340 1471 c0 -162 98 -322 240 -393 85 -43 161 -49 550 -46 l354 3
-2 220 c-1 121 -2 228 -2 238 0 16 -34 17 -570 17 l-570 0 0 -39z"/>
</g>
</svg>
