<svg class= 'dis-water' viewBox="0 0 168 267" fill="none" xmlns="http://www.w3.org/2000/svg">
<g id="Group 2">
<g id="Group 3">
<g id="iso-beaker">
<g id="g28">
<path id="path30" d="M5.97473 29.8517C6.9163 29.324 9.05783 28.7832 10.062 28.6167C18.1676 27.274 23.7663 27.5441 33.4538 29.4711C47.4022 32.2477 66.6726 33.9633 87.9594 33.9633C119.179 33.9633 144.929 30.0547 157.106 24.9326C160.044 23.6962 161.611 22.0109 161.923 20.7912" stroke="#161413" stroke-width="2" stroke-linecap="round" stroke-linejoin="round"/>
<path id="path32" d="M160.742 34.2064V244.064C160.742 252.576 151.53 266.844 89.4828 266.844C27.4352 266.844 18.2232 252.576 18.2232 244.064V47.1424C18.2232 47.1424 19.0831 35.6113 6.50745 34.0345C5.87895 33.9557 3.85871 34.7334 3.16125 34.7107C-0.86816 34.578 -1.79626 30.5078 4.87556 25.0431C12.2987 18.9643 8.81382 12.2888 23.5674 7.75093C37.6981 3.4051 61.8571 0 89.4828 0C132.847 0 168 7.72606 168 16.9813C168 23.6879 160.742 24.371 160.742 34.2064Z" fill="url(#paint0_linear_45_3)" stroke="#161413" stroke-width="4" stroke-linecap="round" stroke-linejoin="round"/>
<path id="path34" d="M12.7513 31.5694C22.5142 30.6508 25.1851 31.6654 33.6141 33.5275C34.1649 33.6491 34.7395 33.7748 35.3426 33.9053" stroke="#161413" stroke-linecap="round" stroke-linejoin="round"/>
<path id="path36" d="M159.829 28.1125C146.846 35.0705 119.216 38.8237 89.4566 38.8237C73.9818 38.8237 59.5515 37.805 47.3872 36.0465" stroke="#161413" stroke-linecap="round" stroke-linejoin="round"/>
<path id="path38" d="M132.059 7.67633C143.59 9.55087 154.094 12.7101 158.283 15.1876C160.206 16.3252 161.32 17.6389 161.32 19.1846" stroke="#161413" stroke-linecap="round" stroke-linejoin="round"/>
<path id="path40" d="M13.5239 23.7342C16.0158 18.4014 17.4614 13.9989 31.1855 10.4426C45.3486 6.77291 65.7081 4.47153 88.3327 4.47153C99.5444 4.47153 110.201 5.03651 119.821 6.05321" stroke="#161413" stroke-linecap="round" stroke-linejoin="round"/>
<path id="path42" d="M156.668 236.706V34.2348C156.668 32.9149 157.229 30.8766 157.705 30.1991" stroke="#161413" stroke-linecap="round" stroke-linejoin="round"/>
<path id="path44" d="M22.2447 236.706C22.2447 236.706 22.2447 52.8779 22.2447 48.0693C22.2447 39.4847 18.923 34.0414 11.8986 32.6338" stroke="#161413" stroke-linecap="round" stroke-linejoin="round"/>
<path id="path46" d="M33.9723 255.227C24.4384 251.308 22.2557 246.342 22.2557 242.149" stroke="#161413" stroke-linecap="round" stroke-linejoin="round"/>
<path id="path48" d="M156.58 242.149C156.58 250.534 147.909 262.016 89.4962 262.016C69.3856 262.016 55.1709 260.654 45.1766 258.526" stroke="#161413" stroke-linecap="round" stroke-linejoin="round"/>
<path id="path50" d="M149.704 249.357C149.704 245.114 139.199 241.376 123.216 239.163" stroke="#161413" stroke-linecap="round" stroke-linejoin="round"/>
<path id="path52" d="M105.366 237.486C100.297 237.203 94.9634 237.05 89.4567 237.05C56.184 237.05 29.209 242.56 29.209 249.357" stroke="#161413" stroke-linecap="round" stroke-linejoin="round"/>
<path id="path54" d="M113.827 227.735C106.235 227.021 98.0276 226.627 89.4568 226.627C60.8348 226.627 36.2122 230.976 25.2914 237.209" stroke="#161413" stroke-linecap="round" stroke-linejoin="round"/>
<path id="path56" d="M153.621 237.21C149.705 234.975 144.629 233.176 137.84 231.536" stroke="#161413" stroke-linecap="round" stroke-linejoin="round"/>
</g>
<g id="iso-prop-liq">
<path id="pehlePani" d="M154.743 144H24V242.491C24 256.884 38.6164 260 92.0849 260C135.008 260 157.703 254.528 154.743 244.679V144Z" fill="#C0EEE9" fill-opacity="0.92"/>
<path id="badmePani" d="M154.743 186.016H24V248.833C24 258.013 38.6164 260 92.0849 260C135.008 260 157.703 256.51 154.743 250.229V186.016Z" fill="#8AFDEF"/>
</g>
<path id="Double Distilled Water" d="M65.6328 184H62.6919L62.7104 181.829H65.6328C66.3626 181.829 66.978 181.665 67.479 181.337C67.98 181.003 68.3573 180.518 68.6108 179.881C68.8706 179.244 69.0005 178.474 69.0005 177.571V176.912C69.0005 176.219 68.9263 175.61 68.7778 175.084C68.6356 174.559 68.4222 174.117 68.1377 173.758C67.8532 173.399 67.5037 173.13 67.0894 172.951C66.675 172.765 66.1987 172.672 65.6606 172.672H62.6362V170.492H65.6606C66.5636 170.492 67.3893 170.647 68.1377 170.956C68.8923 171.259 69.5448 171.695 70.0952 172.264C70.6457 172.833 71.0693 173.514 71.3662 174.305C71.6693 175.091 71.8208 175.966 71.8208 176.931V177.571C71.8208 178.529 71.6693 179.405 71.3662 180.196C71.0693 180.988 70.6457 181.668 70.0952 182.237C69.5509 182.8 68.8984 183.236 68.1377 183.545C67.3831 183.848 66.5482 184 65.6328 184ZM64.269 170.492V184H61.4858V170.492H64.269ZM73.2495 179.083V178.888C73.2495 178.152 73.3547 177.475 73.5649 176.856C73.7752 176.232 74.0814 175.691 74.4834 175.233C74.8854 174.775 75.3802 174.42 75.9678 174.166C76.5553 173.906 77.2295 173.776 77.9902 173.776C78.751 173.776 79.4282 173.906 80.022 174.166C80.6157 174.42 81.1136 174.775 81.5156 175.233C81.9238 175.691 82.2331 176.232 82.4434 176.856C82.6536 177.475 82.7588 178.152 82.7588 178.888V179.083C82.7588 179.813 82.6536 180.49 82.4434 181.115C82.2331 181.733 81.9238 182.274 81.5156 182.738C81.1136 183.196 80.6188 183.552 80.0312 183.805C79.4437 184.059 78.7695 184.186 78.0088 184.186C77.248 184.186 76.5708 184.059 75.9771 183.805C75.3895 183.552 74.8916 183.196 74.4834 182.738C74.0814 182.274 73.7752 181.733 73.5649 181.115C73.3547 180.49 73.2495 179.813 73.2495 179.083ZM75.9214 178.888V179.083C75.9214 179.504 75.9585 179.896 76.0327 180.261C76.1069 180.626 76.2244 180.948 76.3853 181.226C76.5522 181.498 76.7687 181.712 77.0347 181.866C77.3006 182.021 77.6253 182.098 78.0088 182.098C78.3799 182.098 78.6984 182.021 78.9644 181.866C79.2303 181.712 79.4437 181.498 79.6045 181.226C79.7653 180.948 79.8828 180.626 79.957 180.261C80.0374 179.896 80.0776 179.504 80.0776 179.083V178.888C80.0776 178.48 80.0374 178.097 79.957 177.738C79.8828 177.373 79.7622 177.051 79.5952 176.773C79.4344 176.488 79.221 176.266 78.9551 176.105C78.6891 175.944 78.3675 175.864 77.9902 175.864C77.613 175.864 77.2913 175.944 77.0254 176.105C76.7656 176.266 76.5522 176.488 76.3853 176.773C76.2244 177.051 76.1069 177.373 76.0327 177.738C75.9585 178.097 75.9214 178.48 75.9214 178.888ZM90.3384 181.597V173.962H93.0103V184H90.4961L90.3384 181.597ZM90.6353 179.538L91.4238 179.519C91.4238 180.187 91.3465 180.809 91.1919 181.384C91.0373 181.953 90.8053 182.448 90.4961 182.868C90.1868 183.283 89.7972 183.607 89.3271 183.842C88.8571 184.071 88.3035 184.186 87.6665 184.186C87.1779 184.186 86.7264 184.118 86.312 183.981C85.9038 183.839 85.5513 183.62 85.2544 183.323C84.9637 183.02 84.7349 182.633 84.5679 182.163C84.4071 181.687 84.3267 181.115 84.3267 180.447V173.962H86.9985V180.465C86.9985 180.762 87.0326 181.013 87.1006 181.217C87.1748 181.421 87.2769 181.588 87.4067 181.718C87.5366 181.848 87.6882 181.94 87.8613 181.996C88.0407 182.052 88.2386 182.08 88.4551 182.08C89.0055 182.08 89.4385 181.968 89.7539 181.746C90.0755 181.523 90.3013 181.22 90.4312 180.836C90.5672 180.447 90.6353 180.014 90.6353 179.538ZM95.0513 169.75H97.7231V181.699L97.4541 184H95.0513V169.75ZM104.078 178.879V179.074C104.078 179.822 103.998 180.509 103.837 181.133C103.682 181.758 103.441 182.299 103.113 182.757C102.785 183.208 102.377 183.561 101.889 183.814C101.406 184.062 100.837 184.186 100.182 184.186C99.5693 184.186 99.0374 184.062 98.5859 183.814C98.1406 183.567 97.7664 183.218 97.4634 182.766C97.1603 182.315 96.916 181.786 96.7305 181.18C96.5449 180.574 96.4058 179.912 96.313 179.194V178.768C96.4058 178.05 96.5449 177.388 96.7305 176.782C96.916 176.176 97.1603 175.647 97.4634 175.196C97.7664 174.744 98.1406 174.395 98.5859 174.147C99.0312 173.9 99.557 173.776 100.163 173.776C100.825 173.776 101.4 173.903 101.889 174.157C102.383 174.404 102.792 174.757 103.113 175.214C103.441 175.666 103.682 176.204 103.837 176.829C103.998 177.447 104.078 178.131 104.078 178.879ZM101.406 179.074V178.879C101.406 178.471 101.375 178.087 101.313 177.729C101.258 177.364 101.159 177.045 101.017 176.773C100.874 176.495 100.68 176.275 100.432 176.114C100.191 175.953 99.8786 175.873 99.4951 175.873C99.1302 175.873 98.821 175.935 98.5674 176.059C98.3138 176.182 98.1035 176.355 97.9365 176.578C97.7757 176.801 97.6551 177.067 97.5747 177.376C97.4943 177.679 97.4448 178.013 97.4263 178.378V179.593C97.4448 180.082 97.5252 180.515 97.6675 180.892C97.8159 181.263 98.0386 181.557 98.3354 181.773C98.6385 181.984 99.0312 182.089 99.5137 182.089C99.891 182.089 100.203 182.015 100.451 181.866C100.698 181.718 100.89 181.507 101.026 181.235C101.168 180.963 101.267 180.645 101.323 180.28C101.378 179.909 101.406 179.507 101.406 179.074ZM108.559 169.75V184H105.878V169.75H108.559ZM115.387 184.186C114.608 184.186 113.909 184.062 113.291 183.814C112.672 183.561 112.146 183.211 111.713 182.766C111.287 182.321 110.959 181.804 110.73 181.217C110.501 180.623 110.387 179.992 110.387 179.324V178.953C110.387 178.192 110.495 177.497 110.711 176.866C110.928 176.235 111.237 175.688 111.639 175.224C112.047 174.76 112.542 174.404 113.124 174.157C113.705 173.903 114.361 173.776 115.09 173.776C115.802 173.776 116.432 173.894 116.983 174.129C117.533 174.364 117.994 174.698 118.365 175.131C118.743 175.564 119.027 176.083 119.219 176.689C119.41 177.289 119.506 177.957 119.506 178.693V179.807H111.528V178.025H116.881V177.821C116.881 177.45 116.813 177.119 116.677 176.829C116.547 176.532 116.349 176.297 116.083 176.124C115.817 175.95 115.477 175.864 115.062 175.864C114.71 175.864 114.407 175.941 114.153 176.096C113.9 176.25 113.693 176.467 113.532 176.745C113.377 177.023 113.26 177.351 113.179 177.729C113.105 178.1 113.068 178.508 113.068 178.953V179.324C113.068 179.726 113.124 180.097 113.235 180.438C113.352 180.778 113.516 181.071 113.727 181.319C113.943 181.566 114.203 181.758 114.506 181.894C114.815 182.03 115.165 182.098 115.554 182.098C116.037 182.098 116.485 182.005 116.899 181.82C117.32 181.628 117.682 181.34 117.985 180.957L119.284 182.367C119.073 182.67 118.786 182.961 118.421 183.239C118.062 183.518 117.629 183.746 117.122 183.926C116.615 184.099 116.037 184.186 115.387 184.186ZM35.6021 206H32.6611L32.6797 203.829H35.6021C36.3319 203.829 36.9473 203.665 37.4482 203.337C37.9492 203.003 38.3265 202.518 38.5801 201.881C38.8398 201.244 38.9697 200.474 38.9697 199.571V198.912C38.9697 198.219 38.8955 197.61 38.7471 197.084C38.6048 196.559 38.3914 196.117 38.1069 195.758C37.8224 195.399 37.473 195.13 37.0586 194.951C36.6442 194.765 36.168 194.672 35.6299 194.672H32.6055V192.492H35.6299C36.5329 192.492 37.3586 192.647 38.1069 192.956C38.8615 193.259 39.514 193.695 40.0645 194.264C40.6149 194.833 41.0386 195.514 41.3354 196.305C41.6385 197.091 41.79 197.966 41.79 198.931V199.571C41.79 200.529 41.6385 201.405 41.3354 202.196C41.0386 202.988 40.6149 203.668 40.0645 204.237C39.5202 204.8 38.8677 205.236 38.1069 205.545C37.3524 205.848 36.5174 206 35.6021 206ZM34.2383 192.492V206H31.4551V192.492H34.2383ZM46.4658 195.962V206H43.7847V195.962H46.4658ZM43.6177 193.346C43.6177 192.956 43.7537 192.634 44.0259 192.381C44.298 192.127 44.6629 192 45.1206 192C45.5721 192 45.9339 192.127 46.2061 192.381C46.4844 192.634 46.6235 192.956 46.6235 193.346C46.6235 193.735 46.4844 194.057 46.2061 194.311C45.9339 194.564 45.5721 194.691 45.1206 194.691C44.6629 194.691 44.298 194.564 44.0259 194.311C43.7537 194.057 43.6177 193.735 43.6177 193.346ZM54.1011 203.226C54.1011 203.034 54.0454 202.861 53.9341 202.707C53.8228 202.552 53.6156 202.41 53.3125 202.28C53.0156 202.144 52.5858 202.02 52.0229 201.909C51.5158 201.797 51.0426 201.658 50.6035 201.491C50.1706 201.318 49.7933 201.111 49.4717 200.87C49.1562 200.628 48.9089 200.344 48.7295 200.016C48.5501 199.682 48.4604 199.302 48.4604 198.875C48.4604 198.454 48.5501 198.059 48.7295 197.688C48.915 197.316 49.1779 196.989 49.5181 196.704C49.8644 196.413 50.285 196.188 50.7798 196.027C51.2808 195.86 51.8436 195.776 52.4683 195.776C53.3403 195.776 54.0887 195.916 54.7134 196.194C55.3442 196.472 55.8267 196.856 56.1606 197.344C56.5008 197.827 56.6709 198.377 56.6709 198.996H53.999C53.999 198.736 53.9434 198.504 53.832 198.3C53.7269 198.09 53.5599 197.926 53.3311 197.808C53.1084 197.684 52.8177 197.623 52.459 197.623C52.1621 197.623 51.9054 197.675 51.689 197.78C51.4725 197.879 51.3055 198.015 51.188 198.188C51.0767 198.355 51.021 198.541 51.021 198.745C51.021 198.9 51.0519 199.039 51.1138 199.163C51.1818 199.28 51.29 199.388 51.4385 199.487C51.5869 199.586 51.7786 199.679 52.0137 199.766C52.2549 199.846 52.5518 199.92 52.9043 199.988C53.6279 200.137 54.2743 200.332 54.8433 200.573C55.4123 200.808 55.8638 201.129 56.1978 201.538C56.5317 201.94 56.6987 202.468 56.6987 203.124C56.6987 203.569 56.5998 203.978 56.4019 204.349C56.2039 204.72 55.9194 205.044 55.5483 205.323C55.1772 205.595 54.7319 205.808 54.2124 205.963C53.6991 206.111 53.1208 206.186 52.4775 206.186C51.5436 206.186 50.752 206.019 50.1025 205.685C49.4593 205.351 48.9707 204.927 48.6367 204.414C48.3089 203.894 48.145 203.362 48.145 202.818H50.6777C50.6901 203.183 50.7829 203.477 50.9561 203.699C51.1354 203.922 51.3612 204.083 51.6333 204.182C51.9116 204.281 52.2116 204.33 52.5332 204.33C52.8796 204.33 53.1672 204.284 53.396 204.191C53.6248 204.092 53.798 203.962 53.9155 203.801C54.0392 203.634 54.1011 203.443 54.1011 203.226ZM63.3506 195.962V197.854H57.5059V195.962H63.3506ZM58.9531 193.485H61.625V202.976C61.625 203.266 61.6621 203.489 61.7363 203.644C61.8167 203.798 61.9342 203.906 62.0889 203.968C62.2435 204.024 62.4383 204.052 62.6733 204.052C62.8403 204.052 62.9888 204.046 63.1187 204.033C63.2547 204.015 63.3691 203.996 63.4619 203.978L63.4712 205.944C63.2424 206.019 62.995 206.077 62.729 206.121C62.4631 206.164 62.1693 206.186 61.8477 206.186C61.2601 206.186 60.7467 206.09 60.3076 205.898C59.8747 205.7 59.5407 205.385 59.3057 204.952C59.0706 204.519 58.9531 203.95 58.9531 203.245V193.485ZM67.6924 195.962V206H65.0112V195.962H67.6924ZM64.8442 193.346C64.8442 192.956 64.9803 192.634 65.2524 192.381C65.5246 192.127 65.8895 192 66.3472 192C66.7987 192 67.1605 192.127 67.4326 192.381C67.7109 192.634 67.8501 192.956 67.8501 193.346C67.8501 193.735 67.7109 194.057 67.4326 194.311C67.1605 194.564 66.7987 194.691 66.3472 194.691C65.8895 194.691 65.5246 194.564 65.2524 194.311C64.9803 194.057 64.8442 193.735 64.8442 193.346ZM72.7207 191.75V206H70.0396V191.75H72.7207ZM77.749 191.75V206H75.0679V191.75H77.749ZM84.5771 206.186C83.7979 206.186 83.099 206.062 82.4805 205.814C81.862 205.561 81.3363 205.211 80.9033 204.766C80.4766 204.321 80.1488 203.804 79.9199 203.217C79.6911 202.623 79.5767 201.992 79.5767 201.324V200.953C79.5767 200.192 79.6849 199.497 79.9014 198.866C80.1178 198.235 80.4271 197.688 80.8291 197.224C81.2373 196.76 81.7321 196.404 82.3135 196.157C82.8949 195.903 83.5505 195.776 84.2803 195.776C84.9915 195.776 85.6224 195.894 86.1729 196.129C86.7233 196.364 87.1841 196.698 87.5552 197.131C87.9325 197.564 88.217 198.083 88.4087 198.689C88.6004 199.289 88.6963 199.957 88.6963 200.693V201.807H80.7178V200.025H86.0708V199.821C86.0708 199.45 86.0028 199.119 85.8667 198.829C85.7368 198.532 85.5389 198.297 85.2729 198.124C85.007 197.95 84.6668 197.864 84.2524 197.864C83.8999 197.864 83.5968 197.941 83.3433 198.096C83.0897 198.25 82.8825 198.467 82.7217 198.745C82.5671 199.023 82.4495 199.351 82.3691 199.729C82.2949 200.1 82.2578 200.508 82.2578 200.953V201.324C82.2578 201.726 82.3135 202.097 82.4248 202.438C82.5423 202.778 82.7062 203.071 82.9165 203.319C83.133 203.566 83.3927 203.758 83.6958 203.894C84.005 204.03 84.3545 204.098 84.7441 204.098C85.2266 204.098 85.675 204.005 86.0894 203.82C86.5099 203.628 86.8717 203.34 87.1748 202.957L88.4736 204.367C88.2633 204.67 87.9757 204.961 87.6108 205.239C87.2521 205.518 86.8192 205.746 86.312 205.926C85.8049 206.099 85.2266 206.186 84.5771 206.186ZM96.146 203.811V191.75H98.8364V206H96.415L96.146 203.811ZM89.8003 201.102V200.907C89.8003 200.14 89.8869 199.444 90.0601 198.819C90.2332 198.188 90.4868 197.647 90.8208 197.196C91.1548 196.744 91.5661 196.395 92.0547 196.147C92.5433 195.9 93.0999 195.776 93.7246 195.776C94.3122 195.776 94.8255 195.9 95.2646 196.147C95.71 196.395 96.0872 196.747 96.3965 197.205C96.7119 197.657 96.9655 198.192 97.1572 198.81C97.349 199.422 97.4881 200.093 97.5747 200.823V201.25C97.4881 201.949 97.349 202.598 97.1572 203.198C96.9655 203.798 96.7119 204.324 96.3965 204.775C96.0872 205.221 95.71 205.567 95.2646 205.814C94.8193 206.062 94.2998 206.186 93.7061 206.186C93.0814 206.186 92.5247 206.059 92.0361 205.805C91.5537 205.552 91.1455 205.196 90.8115 204.738C90.4837 204.281 90.2332 203.743 90.0601 203.124C89.8869 202.506 89.8003 201.831 89.8003 201.102ZM92.4722 200.907V201.102C92.4722 201.516 92.5031 201.903 92.5649 202.261C92.633 202.62 92.7412 202.938 92.8896 203.217C93.0443 203.489 93.2422 203.702 93.4834 203.857C93.7308 204.005 94.0308 204.08 94.3833 204.08C94.841 204.08 95.2183 203.978 95.5151 203.773C95.812 203.563 96.0378 203.276 96.1924 202.911C96.3532 202.546 96.446 202.125 96.4707 201.649V200.434C96.4521 200.044 96.3965 199.694 96.3037 199.385C96.2171 199.07 96.0872 198.801 95.9141 198.578C95.7471 198.355 95.5368 198.182 95.2832 198.059C95.0358 197.935 94.742 197.873 94.4019 197.873C94.0555 197.873 93.7586 197.953 93.5112 198.114C93.2638 198.269 93.0628 198.482 92.9082 198.754C92.7598 199.027 92.6484 199.348 92.5742 199.719C92.5062 200.084 92.4722 200.48 92.4722 200.907ZM109.079 203.857L111.769 192.492H113.272L113.615 194.385L110.749 206H109.134L109.079 203.857ZM107.696 192.492L109.923 203.857L109.737 206H107.938L104.941 192.492H107.696ZM115.981 203.811L118.18 192.492H120.935L117.948 206H116.148L115.981 203.811ZM114.116 192.492L116.825 203.903L116.751 206H115.137L112.251 194.375L112.623 192.492H114.116ZM127.383 203.736V199.265C127.383 198.943 127.33 198.668 127.225 198.439C127.12 198.204 126.956 198.021 126.733 197.892C126.517 197.762 126.236 197.697 125.889 197.697C125.592 197.697 125.336 197.749 125.119 197.854C124.903 197.953 124.736 198.099 124.618 198.291C124.501 198.476 124.442 198.696 124.442 198.949H121.77C121.77 198.522 121.869 198.117 122.067 197.734C122.265 197.35 122.552 197.013 122.93 196.723C123.307 196.426 123.755 196.194 124.275 196.027C124.801 195.86 125.388 195.776 126.038 195.776C126.817 195.776 127.51 195.906 128.116 196.166C128.722 196.426 129.198 196.815 129.544 197.335C129.897 197.854 130.073 198.504 130.073 199.283V203.579C130.073 204.129 130.107 204.581 130.175 204.933C130.243 205.279 130.342 205.583 130.472 205.842V206H127.772C127.643 205.728 127.544 205.388 127.476 204.979C127.414 204.565 127.383 204.151 127.383 203.736ZM127.735 199.886L127.754 201.398H126.26C125.908 201.398 125.602 201.439 125.342 201.519C125.082 201.599 124.869 201.714 124.702 201.862C124.535 202.005 124.411 202.172 124.331 202.363C124.256 202.555 124.219 202.765 124.219 202.994C124.219 203.223 124.272 203.43 124.377 203.616C124.482 203.795 124.634 203.937 124.832 204.042C125.029 204.141 125.261 204.191 125.527 204.191C125.929 204.191 126.279 204.111 126.576 203.95C126.873 203.789 127.101 203.591 127.262 203.356C127.429 203.121 127.516 202.898 127.522 202.688L128.227 203.82C128.128 204.073 127.992 204.336 127.819 204.608C127.652 204.881 127.438 205.137 127.179 205.378C126.919 205.613 126.607 205.808 126.242 205.963C125.877 206.111 125.444 206.186 124.943 206.186C124.306 206.186 123.728 206.059 123.208 205.805C122.695 205.545 122.286 205.19 121.983 204.738C121.687 204.281 121.538 203.761 121.538 203.18C121.538 202.654 121.637 202.187 121.835 201.779C122.033 201.371 122.324 201.027 122.707 200.749C123.097 200.465 123.582 200.251 124.164 200.109C124.745 199.96 125.419 199.886 126.186 199.886H127.735ZM137.05 195.962V197.854H131.205V195.962H137.05ZM132.652 193.485H135.324V202.976C135.324 203.266 135.361 203.489 135.436 203.644C135.516 203.798 135.633 203.906 135.788 203.968C135.943 204.024 136.138 204.052 136.373 204.052C136.54 204.052 136.688 204.046 136.818 204.033C136.954 204.015 137.068 203.996 137.161 203.978L137.17 205.944C136.942 206.019 136.694 206.077 136.428 206.121C136.162 206.164 135.868 206.186 135.547 206.186C134.959 206.186 134.446 206.09 134.007 205.898C133.574 205.7 133.24 205.385 133.005 204.952C132.77 204.519 132.652 203.95 132.652 203.245V193.485ZM143.191 206.186C142.412 206.186 141.713 206.062 141.095 205.814C140.476 205.561 139.951 205.211 139.518 204.766C139.091 204.321 138.763 203.804 138.534 203.217C138.305 202.623 138.191 201.992 138.191 201.324V200.953C138.191 200.192 138.299 199.497 138.516 198.866C138.732 198.235 139.041 197.688 139.443 197.224C139.852 196.76 140.346 196.404 140.928 196.157C141.509 195.903 142.165 195.776 142.895 195.776C143.606 195.776 144.237 195.894 144.787 196.129C145.338 196.364 145.798 196.698 146.169 197.131C146.547 197.564 146.831 198.083 147.023 198.689C147.215 199.289 147.311 199.957 147.311 200.693V201.807H139.332V200.025H144.685V199.821C144.685 199.45 144.617 199.119 144.481 198.829C144.351 198.532 144.153 198.297 143.887 198.124C143.621 197.95 143.281 197.864 142.867 197.864C142.514 197.864 142.211 197.941 141.958 198.096C141.704 198.25 141.497 198.467 141.336 198.745C141.181 199.023 141.064 199.351 140.983 199.729C140.909 200.1 140.872 200.508 140.872 200.953V201.324C140.872 201.726 140.928 202.097 141.039 202.438C141.157 202.778 141.32 203.071 141.531 203.319C141.747 203.566 142.007 203.758 142.31 203.894C142.619 204.03 142.969 204.098 143.358 204.098C143.841 204.098 144.289 204.005 144.704 203.82C145.124 203.628 145.486 203.34 145.789 202.957L147.088 204.367C146.878 204.67 146.59 204.961 146.225 205.239C145.866 205.518 145.433 205.746 144.926 205.926C144.419 206.099 143.841 206.186 143.191 206.186ZM151.504 198.151V206H148.832V195.962H151.346L151.504 198.151ZM154.528 195.897L154.482 198.374C154.352 198.355 154.194 198.34 154.009 198.328C153.829 198.309 153.666 198.3 153.517 198.3C153.14 198.3 152.812 198.349 152.534 198.448C152.262 198.541 152.033 198.68 151.847 198.866C151.668 199.051 151.532 199.277 151.439 199.543C151.352 199.809 151.303 200.112 151.291 200.452L150.752 200.285C150.752 199.636 150.817 199.039 150.947 198.495C151.077 197.944 151.266 197.465 151.513 197.057C151.767 196.648 152.076 196.333 152.441 196.11C152.806 195.888 153.223 195.776 153.693 195.776C153.842 195.776 153.993 195.789 154.148 195.813C154.303 195.832 154.429 195.86 154.528 195.897Z" fill="black"/>
</g>
</g>
</g>
<defs>
<linearGradient id="paint0_linear_45_3" x1="84" y1="0" x2="84" y2="266.844" gradientUnits="userSpaceOnUse">
<stop stop-color="#C4C4C4" stop-opacity="0"/>
<stop offset="1" stop-color="#9DF3FF" stop-opacity="0.7"/>
</linearGradient>
</defs>
</svg>
