<svg width="285" height="108" viewBox="0 0 285 108" fill="none" xmlns="http://www.w3.org/2000/svg">
<path fill-rule="evenodd" clip-rule="evenodd" d="M3.91398 20.827C1.39709 24.1511 0 27.7915 0 31.618V70.6034C0 84.9061 19.3713 96.6673 44.7362 98.6583V94.0435C20.6423 91.4866 2.56557 80.0494 2.56557 66.2329V27.2475C2.56557 25.0372 3.03806 22.8892 3.91398 20.827V20.827Z" fill="#0B2817"/>
<path d="M242 0H45V96H242V0Z" fill="#008000"/>
<path fill-rule="evenodd" clip-rule="evenodd" d="M282.18 27.7455C282.185 27.9024 282.192 28.059 282.192 28.2166V67.3939C282.192 81.503 263.538 93.1571 238.864 95.475V101.765C264.229 99.7636 283.6 87.945 283.6 73.5702V34.3841C283.6 32.0941 283.109 29.8764 282.18 27.7455H282.18Z" fill="#37483E"/>
<path d="M240 90H39V108H240V90Z" fill="#008000"/>
<path fill-rule="evenodd" clip-rule="evenodd" d="M46.7362 0C21.3716 1.99109 2 13.7511 2 28.0537V67.0394C2 81.3421 21.3713 93.1022 46.7362 95.0931V0V0Z" fill="#008000"/>
<path fill-rule="evenodd" clip-rule="evenodd" d="M240 0C265.365 2.00113 284.736 13.8205 284.736 28.1952V67.3775C284.736 81.7523 265.365 93.5717 240 95.5727V0Z" fill="#008000"/>
<path opacity="0.785366" fill-rule="evenodd" clip-rule="evenodd" d="M68.4905 21.9758C68.4905 26.3807 63.232 29.9516 56.7452 29.9516C50.2585 29.9516 45 26.3807 45 21.9758C45 17.5709 50.2585 14 56.7452 14C63.232 14 68.4905 17.5709 68.4905 21.9758V21.9758Z" fill="#165016"/>
<path opacity="0.662927" fill-rule="evenodd" clip-rule="evenodd" d="M56.8699 14.0862C50.3832 14.0862 45.1147 17.6546 45.1147 22.0595C45.1147 22.9048 45.3082 23.7201 45.667 24.4846C46.6355 20.7424 51.4417 17.8984 57.2302 17.8984C62.4809 17.8984 66.9175 20.2448 68.4211 23.4727C68.5425 23.0129 68.6132 22.543 68.6132 22.0595C68.6132 17.6546 63.3567 14.0862 56.8699 14.0862Z" fill="#D5FFE6"/>
<path opacity="0.785366" fill-rule="evenodd" clip-rule="evenodd" d="M111.593 21.9758C111.593 26.3807 106.334 29.9516 99.8476 29.9516C93.3608 29.9516 88.1023 26.3807 88.1023 21.9758C88.1023 17.5709 93.3608 14 99.8476 14C106.334 14 111.593 17.5709 111.593 21.9758V21.9758Z" fill="#165016"/>
<path opacity="0.662927" fill-rule="evenodd" clip-rule="evenodd" d="M99.9722 14.0862C93.4855 14.0862 88.2169 17.6546 88.2169 22.0595C88.2169 22.9048 88.4105 23.7201 88.7693 24.4846C89.7378 20.7424 94.544 17.8984 100.332 17.8984C105.583 17.8984 110.02 20.2448 111.523 23.4727C111.645 23.0129 111.715 22.543 111.715 22.0595C111.715 17.6546 106.459 14.0862 99.9722 14.0862Z" fill="#D5FFE6"/>
<path opacity="0.785366" fill-rule="evenodd" clip-rule="evenodd" d="M154.695 21.9758C154.695 26.3807 149.437 29.9516 142.95 29.9516C136.463 29.9516 131.205 26.3807 131.205 21.9758C131.205 17.5709 136.463 14 142.95 14C149.437 14 154.695 17.5709 154.695 21.9758V21.9758Z" fill="#165016"/>
<path opacity="0.662927" fill-rule="evenodd" clip-rule="evenodd" d="M143.075 14.0862C136.588 14.0862 131.319 17.6546 131.319 22.0595C131.319 22.9048 131.513 23.7201 131.872 24.4846C132.84 20.7424 137.646 17.8984 143.435 17.8984C148.686 17.8984 153.122 20.2448 154.626 23.4727C154.747 23.0129 154.818 22.543 154.818 22.0595C154.818 17.6546 149.561 14.0862 143.075 14.0862Z" fill="#D5FFE6"/>
<path opacity="0.785366" fill-rule="evenodd" clip-rule="evenodd" d="M197.798 21.9758C197.798 26.3807 192.539 29.9516 186.052 29.9516C179.566 29.9516 174.307 26.3807 174.307 21.9758C174.307 17.5709 179.566 14 186.052 14C192.539 14 197.798 17.5709 197.798 21.9758V21.9758Z" fill="#165016"/>
<path opacity="0.662927" fill-rule="evenodd" clip-rule="evenodd" d="M186.177 14.0862C179.69 14.0862 174.422 17.6546 174.422 22.0595C174.422 22.9048 174.615 23.7201 174.974 24.4846C175.943 20.7424 180.749 17.8984 186.537 17.8984C191.788 17.8984 196.225 20.2448 197.728 23.4727C197.85 23.0129 197.92 22.543 197.92 22.0595C197.92 17.6546 192.664 14.0862 186.177 14.0862Z" fill="#D5FFE6"/>
<path opacity="0.785366" fill-rule="evenodd" clip-rule="evenodd" d="M240.9 21.9758C240.9 26.3807 235.641 29.9516 229.155 29.9516C222.668 29.9516 217.409 26.3807 217.409 21.9758C217.409 17.5709 222.668 14 229.155 14C235.641 14 240.9 17.5709 240.9 21.9758V21.9758Z" fill="#165016"/>
<path opacity="0.662927" fill-rule="evenodd" clip-rule="evenodd" d="M229.279 14.0862C222.793 14.0862 217.524 17.6546 217.524 22.0595C217.524 22.9048 217.718 23.7201 218.076 24.4846C219.045 20.7424 223.851 17.8984 229.64 17.8984C234.89 17.8984 239.327 20.2448 240.83 23.4727C240.952 23.0129 241.023 22.543 241.023 22.0595C241.023 17.6546 235.766 14.0862 229.279 14.0862Z" fill="#D5FFE6"/>
<path opacity="0.785366" fill-rule="evenodd" clip-rule="evenodd" d="M69.4967 44.9758C69.4967 49.3807 64.2382 52.9516 57.7515 52.9516C51.2647 52.9516 46.0062 49.3807 46.0062 44.9758C46.0062 40.5709 51.2647 37 57.7515 37C64.2382 37 69.4967 40.5709 69.4967 44.9758V44.9758Z" fill="#165016"/>
<path opacity="0.662927" fill-rule="evenodd" clip-rule="evenodd" d="M57.8761 37.0862C51.3894 37.0862 46.1208 40.6546 46.1208 45.0595C46.1208 45.9048 46.3144 46.7201 46.6732 47.4846C47.6417 43.7424 52.4479 40.8984 58.2363 40.8984C63.4871 40.8984 67.9236 43.2448 69.4273 46.4727C69.5487 46.0129 69.6194 45.543 69.6194 45.0595C69.6194 40.6546 64.3628 37.0862 57.8761 37.0862Z" fill="#D5FFE6"/>
<path opacity="0.785366" fill-rule="evenodd" clip-rule="evenodd" d="M112.599 44.9758C112.599 49.3807 107.341 52.9516 100.854 52.9516C94.3671 52.9516 89.1086 49.3807 89.1086 44.9758C89.1086 40.5709 94.3671 37 100.854 37C107.341 37 112.599 40.5709 112.599 44.9758V44.9758Z" fill="#165016"/>
<path opacity="0.662927" fill-rule="evenodd" clip-rule="evenodd" d="M100.978 37.0862C94.4918 37.0862 89.2232 40.6546 89.2232 45.0595C89.2232 45.9048 89.4168 46.7201 89.7756 47.4846C90.7441 43.7424 95.5502 40.8984 101.339 40.8984C106.589 40.8984 111.026 43.2448 112.53 46.4727C112.651 46.0129 112.722 45.543 112.722 45.0595C112.722 40.6546 107.465 37.0862 100.978 37.0862Z" fill="#D5FFE6"/>
<path opacity="0.785366" fill-rule="evenodd" clip-rule="evenodd" d="M155.701 44.9758C155.701 49.3807 150.443 52.9516 143.956 52.9516C137.47 52.9516 132.211 49.3807 132.211 44.9758C132.211 40.5709 137.47 37 143.956 37C150.443 37 155.701 40.5709 155.701 44.9758V44.9758Z" fill="#165016"/>
<path opacity="0.662927" fill-rule="evenodd" clip-rule="evenodd" d="M144.081 37.0862C137.594 37.0862 132.326 40.6546 132.326 45.0595C132.326 45.9048 132.519 46.7201 132.878 47.4846C133.846 43.7424 138.653 40.8984 144.441 40.8984C149.692 40.8984 154.128 43.2448 155.632 46.4727C155.753 46.0129 155.824 45.543 155.824 45.0595C155.824 40.6546 150.568 37.0862 144.081 37.0862Z" fill="#D5FFE6"/>
<path opacity="0.785366" fill-rule="evenodd" clip-rule="evenodd" d="M198.804 44.9758C198.804 49.3807 193.545 52.9516 187.059 52.9516C180.572 52.9516 175.313 49.3807 175.313 44.9758C175.313 40.5709 180.572 37 187.059 37C193.545 37 198.804 40.5709 198.804 44.9758V44.9758Z" fill="#165016"/>
<path opacity="0.662927" fill-rule="evenodd" clip-rule="evenodd" d="M187.183 37.0862C180.697 37.0862 175.428 40.6546 175.428 45.0595C175.428 45.9048 175.622 46.7201 175.98 47.4846C176.949 43.7424 181.755 40.8984 187.544 40.8984C192.794 40.8984 197.231 43.2448 198.734 46.4727C198.856 46.0129 198.927 45.543 198.927 45.0595C198.927 40.6546 193.67 37.0862 187.183 37.0862Z" fill="#D5FFE6"/>
<path opacity="0.785366" fill-rule="evenodd" clip-rule="evenodd" d="M241.906 44.9758C241.906 49.3807 236.648 52.9516 230.161 52.9516C223.674 52.9516 218.416 49.3807 218.416 44.9758C218.416 40.5709 223.674 37 230.161 37C236.648 37 241.906 40.5709 241.906 44.9758V44.9758Z" fill="#165016"/>
<path opacity="0.662927" fill-rule="evenodd" clip-rule="evenodd" d="M230.286 37.0862C223.799 37.0862 218.53 40.6546 218.53 45.0595C218.53 45.9048 218.724 46.7201 219.083 47.4846C220.051 43.7424 224.857 40.8984 230.646 40.8984C235.897 40.8984 240.333 43.2448 241.837 46.4727C241.958 46.0129 242.029 45.543 242.029 45.0595C242.029 40.6546 236.772 37.0862 230.286 37.0862Z" fill="#D5FFE6"/>
<path opacity="0.785366" fill-rule="evenodd" clip-rule="evenodd" d="M69.4967 66.9758C69.4967 71.3807 64.2382 74.9516 57.7515 74.9516C51.2647 74.9516 46.0062 71.3807 46.0062 66.9758C46.0062 62.5709 51.2647 59 57.7515 59C64.2382 59 69.4967 62.5709 69.4967 66.9758V66.9758Z" fill="#165016"/>
<path opacity="0.662927" fill-rule="evenodd" clip-rule="evenodd" d="M57.8761 59.0862C51.3894 59.0862 46.1208 62.6546 46.1208 67.0595C46.1208 67.9048 46.3144 68.7201 46.6732 69.4846C47.6417 65.7424 52.4479 62.8984 58.2363 62.8984C63.4871 62.8984 67.9236 65.2448 69.4273 68.4727C69.5487 68.0129 69.6194 67.543 69.6194 67.0595C69.6194 62.6546 64.3628 59.0862 57.8761 59.0862Z" fill="#D5FFE6"/>
<path opacity="0.785366" fill-rule="evenodd" clip-rule="evenodd" d="M112.599 66.9758C112.599 71.3807 107.341 74.9516 100.854 74.9516C94.3671 74.9516 89.1086 71.3807 89.1086 66.9758C89.1086 62.5709 94.3671 59 100.854 59C107.341 59 112.599 62.5709 112.599 66.9758V66.9758Z" fill="#165016"/>
<path opacity="0.662927" fill-rule="evenodd" clip-rule="evenodd" d="M100.978 59.0862C94.4918 59.0862 89.2232 62.6546 89.2232 67.0595C89.2232 67.9048 89.4168 68.7201 89.7756 69.4846C90.7441 65.7424 95.5502 62.8984 101.339 62.8984C106.589 62.8984 111.026 65.2448 112.53 68.4727C112.651 68.0129 112.722 67.543 112.722 67.0595C112.722 62.6546 107.465 59.0862 100.978 59.0862Z" fill="#D5FFE6"/>
<path opacity="0.785366" fill-rule="evenodd" clip-rule="evenodd" d="M155.701 66.9758C155.701 71.3807 150.443 74.9516 143.956 74.9516C137.47 74.9516 132.211 71.3807 132.211 66.9758C132.211 62.5709 137.47 59 143.956 59C150.443 59 155.701 62.5709 155.701 66.9758V66.9758Z" fill="#165016"/>
<path opacity="0.662927" fill-rule="evenodd" clip-rule="evenodd" d="M144.081 59.0862C137.594 59.0862 132.326 62.6546 132.326 67.0595C132.326 67.9048 132.519 68.7201 132.878 69.4846C133.846 65.7424 138.653 62.8984 144.441 62.8984C149.692 62.8984 154.128 65.2448 155.632 68.4727C155.753 68.0129 155.824 67.543 155.824 67.0595C155.824 62.6546 150.568 59.0862 144.081 59.0862Z" fill="#D5FFE6"/>
<path opacity="0.785366" fill-rule="evenodd" clip-rule="evenodd" d="M198.804 66.9758C198.804 71.3807 193.545 74.9516 187.059 74.9516C180.572 74.9516 175.313 71.3807 175.313 66.9758C175.313 62.5709 180.572 59 187.059 59C193.545 59 198.804 62.5709 198.804 66.9758V66.9758Z" fill="#165016"/>
<path opacity="0.662927" fill-rule="evenodd" clip-rule="evenodd" d="M187.183 59.0862C180.697 59.0862 175.428 62.6546 175.428 67.0595C175.428 67.9048 175.622 68.7201 175.98 69.4846C176.949 65.7424 181.755 62.8984 187.544 62.8984C192.794 62.8984 197.231 65.2448 198.734 68.4727C198.856 68.0129 198.927 67.543 198.927 67.0595C198.927 62.6546 193.67 59.0862 187.183 59.0862Z" fill="#D5FFE6"/>
<path opacity="0.785366" fill-rule="evenodd" clip-rule="evenodd" d="M241.906 66.9758C241.906 71.3807 236.648 74.9516 230.161 74.9516C223.674 74.9516 218.416 71.3807 218.416 66.9758C218.416 62.5709 223.674 59 230.161 59C236.648 59 241.906 62.5709 241.906 66.9758V66.9758Z" fill="#165016"/>
<path opacity="0.662927" fill-rule="evenodd" clip-rule="evenodd" d="M230.286 59.0862C223.799 59.0862 218.53 62.6546 218.53 67.0595C218.53 67.9048 218.724 68.7201 219.083 69.4846C220.051 65.7424 224.857 62.8984 230.646 62.8984C235.897 62.8984 240.333 65.2448 241.837 68.4727C241.958 68.0129 242.029 67.543 242.029 67.0595C242.029 62.6546 236.772 59.0862 230.286 59.0862Z" fill="#D5FFE6"/>
<path d="M29.3189 30H18V65.8571H29.3189V30Z" fill="#005522"/>
<path opacity="0.414847" d="M26.9608 33.7926H19.4149V62.869H26.9608V33.7926Z" fill="#DBE3DB"/>
<path d="M264.319 30H253V65.8571H264.319V30Z" fill="#005522"/>
<path opacity="0.414847" d="M261.961 33.7926H254.415V62.869H261.961V33.7926Z" fill="#DBE3DB"/>
</svg>
