<svg width="149" height="210" viewBox="0 0 149 210" fill="none" xmlns="http://www.w3.org/2000/svg">
<g id="Beakers 1">
<g id="imagebot_2">
<path id="imagebot_9" fill-rule="evenodd" clip-rule="evenodd" d="M46.7952 1.06958L54.2574 9.14457V60.3017C49.2808 68.3805 20.241 128.533 4.48012 162.643C-0.496768 173.412 -0.483283 186.879 6.98251 197.649C11.9592 205.727 20.6505 208.433 29.3691 208.433H118.965C127.681 208.433 136.369 205.727 141.348 197.649C148.814 186.879 148.828 173.412 143.848 162.643C129.753 128.534 113.157 94.4102 99.0542 60.3017V9.14609L106.274 1.33178L106.52 1.0708H46.798L46.7952 1.06958Z" fill="#D7E9FC"/>
<path id="imagebot_8" fill-rule="evenodd" clip-rule="evenodd" d="M46.4757 0.0049115C46.1554 0.0738511 45.897 0.329561 45.805 0.668657C45.7123 1.00777 45.8022 1.37424 46.0367 1.61995L53.2356 9.40995V59.9264C51.9026 62.122 49.2857 67.1471 45.6856 74.3185C42.0138 81.6338 37.4227 90.9742 32.4952 101.135C22.6402 121.45 11.431 145.033 3.54602 162.095C-1.55538 173.138 -1.53207 186.985 6.11409 198.058C6.12322 198.073 6.12687 198.089 6.13607 198.104C11.3292 206.494 20.3547 209.268 29.225 209.268H118.813C127.684 209.268 136.709 206.494 141.906 198.104C141.913 198.089 141.913 198.073 141.927 198.058C149.568 186.985 149.596 173.138 144.49 162.095C130.395 128.001 113.862 93.9534 99.7874 59.9279V9.40995L106.74 1.88101L106.986 1.6198C107.232 1.34832 107.302 0.944459 107.169 0.593037C107.035 0.241568 106.719 0.0101859 106.368 0.0047595H46.6504C46.5921 -0.0015865 46.5331 -0.0015865 46.4748 0.0047595L46.4757 0.0049115ZM48.78 1.90491H104.242L98.2929 8.34078C98.1243 8.52242 98.026 8.77094 98.033 9.0301V60.1872C98.026 60.3179 98.0541 60.4471 98.0962 60.5672C112.213 94.7134 128.809 128.837 142.891 162.909L142.912 162.932C147.758 173.42 147.758 186.499 140.503 196.965C140.496 196.972 140.489 196.98 140.475 196.987C135.713 204.724 127.369 207.369 118.815 207.369H29.2259C20.6743 207.369 12.3279 204.724 7.56263 196.987C7.55561 196.98 7.54788 196.972 7.54086 196.965C0.285127 186.499 0.280211 173.42 5.1264 162.932C13.003 145.885 24.2044 122.34 34.0538 102.033C38.9785 91.8794 43.557 82.5238 47.2224 75.2215C50.8878 67.9202 53.6543 62.6321 54.8384 60.7109C54.9353 60.5566 54.9887 60.3749 54.9915 60.188V9.03086C54.9943 8.7717 54.8988 8.52318 54.7282 8.34154L48.7802 1.90567L48.78 1.90491Z" fill="#9FABB9"/>
<path id="pehle" fill-rule="evenodd" clip-rule="evenodd" d="M47.5488 84.6815C37.1629 104.723 19.5633 140.199 8.65756 163.015C3.9937 172.765 4.01028 184.941 11.0054 194.691C15.6689 202.01 23.8187 204.457 31.9874 204.457H115.916C124.084 204.457 132.238 202.01 136.901 194.691C143.896 184.941 143.91 172.765 139.247 163.015C128.08 136.909 115.333 110.787 103.646 84.6815H47.5502H47.5488Z" fill="#00FFE0" fill-opacity="0.33"/>
<path id="baadme" fill-rule="evenodd" clip-rule="evenodd" d="M26.5376 126.538C17.7586 143.258 17.4555 147.818 8.97951 163.018C4.10586 171.758 5.11672 187.718 11.0865 195.318C15.3004 201.398 23.3772 204.818 31.7427 204.438H115.804C124.161 202.918 128.971 199.275 133.642 194.178C139.963 186.198 138.207 182.398 139.172 175.58C132.94 155.798 125.917 144.778 118.542 126.538H46.9051H26.5376Z" fill="#00FFE0" fill-opacity="0.33"/>
<path id="imagebot_5" fill-rule="evenodd" clip-rule="evenodd" d="M90.1318 8.79451V61.0445C105.969 97.2898 121.884 133.519 137.679 169.778C142.097 181.102 136.591 194.295 127.032 200.094C118.506 206.288 108.013 203.894 98.4193 204.32H78.0448C90.2021 202.625 102.605 202.306 114.601 199.691C122.474 197.031 132.047 192.289 132.531 181.991C133.023 171.001 126.653 161.699 123.261 151.766L86.6202 61.0445V8.79375L92.9622 1.88901H96.5019L90.1318 8.79375V8.79451Z" fill="white"/>
<path id="imagebot_4" fill-rule="evenodd" clip-rule="evenodd" d="M58.2979 8.79451V61.0445C42.4577 97.2898 23.4001 130.228 7.60688 166.495C3.18805 177.811 6.72898 193.095 15.508 199.745C24.2871 204.495 21.6534 203.545 31.5759 204.791C38.3659 204.791 63.5921 204.32 70.3824 204.32C58.2256 202.625 45.8211 202.306 33.8275 199.691C25.9502 197.031 16.381 192.289 15.8999 181.991C15.4041 171.001 21.7756 161.699 25.165 151.766C37.3799 121.525 49.5947 91.2851 61.8096 61.0445V8.79375L55.4619 1.88901H51.9278L58.2979 8.79375V8.79451Z" fill="black" fill-opacity="0.17625"/>
</g>
<path id="GTE SOL-1" d="M49.0889 161.818V165.773C48.9654 165.971 48.7688 166.194 48.499 166.441C48.2292 166.684 47.8566 166.897 47.381 167.08C46.9101 167.258 46.302 167.347 45.5567 167.347C44.9485 167.347 44.3884 167.233 43.8763 167.005C43.3687 166.773 42.9275 166.436 42.5526 165.996C42.1822 165.551 41.8941 165.011 41.6884 164.378C41.4872 163.74 41.3866 163.018 41.3866 162.211V161.372C41.3866 160.566 41.4735 159.846 41.6473 159.212C41.8256 158.579 42.0862 158.042 42.4292 157.602C42.772 157.157 43.1927 156.82 43.6911 156.593C44.1895 156.36 44.7611 156.244 45.4058 156.244C46.1694 156.244 46.8072 156.387 47.3193 156.674C47.836 156.956 48.2384 157.347 48.5265 157.847C48.8191 158.347 49.0066 158.916 49.0889 159.554H47.7651C47.7057 159.163 47.5868 158.806 47.4085 158.485C47.2347 158.164 46.9856 157.906 46.6609 157.714C46.3363 157.515 45.9179 157.416 45.4058 157.416C44.944 157.416 44.5439 157.508 44.2055 157.691C43.8672 157.874 43.5882 158.136 43.3687 158.477C43.1493 158.819 42.9847 159.232 42.8749 159.717C42.7698 160.202 42.7172 160.749 42.7172 161.357V162.211C42.7172 162.834 42.7835 163.391 42.9161 163.881C43.0532 164.37 43.2476 164.788 43.4991 165.135C43.7506 165.476 44.0501 165.736 44.3976 165.915C44.7496 166.093 45.1383 166.182 45.5635 166.182C46.0345 166.182 46.4163 166.14 46.7089 166.055C47.0016 165.966 47.2302 165.862 47.3948 165.744C47.5594 165.62 47.6852 165.504 47.772 165.395V162.975H45.4607V161.818H49.0889ZM54.9736 156.392V167.198H53.6704V156.392H54.9736ZM58.1834 156.392V157.565H50.4675V156.392H58.1834ZM66.0092 166.033V167.198H60.7212V166.033H66.0092ZM60.9886 156.392V167.198H59.6649V156.392H60.9886ZM65.3096 161.039V162.204H60.7212V161.039H65.3096ZM65.9406 156.392V157.565H60.7212V156.392H65.9406ZM76.4547 164.467C76.4547 164.215 76.4182 163.992 76.3452 163.799C76.2763 163.601 76.1534 163.423 75.975 163.265C75.8009 163.107 75.5586 162.955 75.2474 162.812C74.9412 162.669 74.5528 162.523 74.0816 162.374C73.5878 162.216 73.1419 162.04 72.7443 161.847C72.3468 161.65 72.0062 161.424 71.7225 161.172C71.4387 160.919 71.2217 160.63 71.0707 160.304C70.9197 159.977 70.8445 159.604 70.8445 159.183C70.8445 158.762 70.9246 158.374 71.0847 158.018C71.2449 157.661 71.4731 157.352 71.7702 157.09C72.0722 156.823 72.4311 156.615 72.8476 156.466C73.2634 156.318 73.7276 156.244 74.2396 156.244C74.9897 156.244 75.6253 156.4 76.1464 156.711C76.6717 157.018 77.0721 157.421 77.3467 157.921C77.6206 158.416 77.7582 158.946 77.7582 159.509H76.4414C76.4414 159.104 76.3613 158.745 76.2012 158.433C76.0411 158.116 75.7988 157.869 75.4743 157.691C75.1491 157.508 74.7382 157.416 74.2396 157.416C73.7683 157.416 73.3799 157.493 73.0737 157.647C72.7675 157.8 72.5386 158.008 72.3876 158.27C72.2415 158.532 72.1684 158.832 72.1684 159.168C72.1684 159.395 72.212 159.604 72.2984 159.791C72.3897 159.975 72.5294 160.145 72.7169 160.304C72.9087 160.462 73.151 160.608 73.4439 160.741C73.7409 160.875 74.0956 161.004 74.5072 161.128C75.074 161.301 75.5635 161.493 75.975 161.706C76.3866 161.919 76.7244 162.159 76.9899 162.426C77.2596 162.689 77.4583 162.988 77.5869 163.324C77.7189 163.656 77.7856 164.031 77.7856 164.453C77.7856 164.893 77.7035 165.291 77.5384 165.647C77.3741 166.004 77.1388 166.308 76.8319 166.56C76.5257 166.812 76.1576 167.008 75.7278 167.147C75.3029 167.28 74.8274 167.347 74.3014 167.347C73.8393 167.347 73.3842 167.277 72.9361 167.139C72.4929 167.001 72.0884 166.793 71.7225 166.516C71.3615 166.239 71.0707 165.897 70.8516 165.491C70.6367 165.081 70.5292 164.606 70.5292 164.066H71.8461C71.8461 164.437 71.9121 164.757 72.0448 165.024C72.1776 165.286 72.3581 165.504 72.5863 165.677C72.8195 165.85 73.0829 165.979 73.375 166.063C73.6728 166.142 73.9811 166.182 74.3014 166.182C74.7628 166.182 75.154 166.112 75.4743 165.974C75.7938 165.835 76.0368 165.637 76.2012 165.38C76.3704 165.123 76.4547 164.818 76.4547 164.467ZM87.161 161.454V162.137C87.161 162.948 87.0676 163.676 86.88 164.319C86.6925 164.962 86.4228 165.509 86.071 165.959C85.7184 166.41 85.2956 166.753 84.8019 166.991C84.3123 167.228 83.7638 167.347 83.1556 167.347C82.5657 167.347 82.0242 167.228 81.5304 166.991C81.0409 166.753 80.616 166.41 80.2543 165.959C79.8982 165.509 79.6215 164.962 79.4249 164.319C79.2282 163.676 79.1299 162.948 79.1299 162.137V161.454C79.1299 160.643 79.2261 159.918 79.4178 159.279C79.6145 158.636 79.8912 158.089 80.248 157.639C80.6041 157.184 81.0276 156.837 81.5164 156.6C82.0101 156.362 82.5523 156.244 83.1423 156.244C83.7505 156.244 84.299 156.362 84.7878 156.6C85.2823 156.837 85.7051 157.184 86.0569 157.639C86.4137 158.089 86.6855 158.636 86.873 159.279C87.0655 159.918 87.161 160.643 87.161 161.454ZM85.8511 162.137V161.439C85.8511 160.796 85.7893 160.227 85.6657 159.732C85.547 159.237 85.3715 158.822 85.1383 158.485C84.9044 158.148 84.6193 157.894 84.2807 157.72C83.9471 157.547 83.5672 157.461 83.1423 157.461C82.7307 157.461 82.3578 157.547 82.0242 157.72C81.6948 157.894 81.4117 158.148 81.1736 158.485C80.9405 158.822 80.76 159.237 80.6315 159.732C80.5036 160.227 80.4397 160.796 80.4397 161.439V162.137C80.4397 162.785 80.5036 163.359 80.6315 163.858C80.76 164.354 80.9426 164.772 81.1807 165.113C81.423 165.45 81.7088 165.704 82.0375 165.878C82.3718 166.051 82.744 166.137 83.1556 166.137C83.5854 166.137 83.9675 166.051 84.3011 165.878C84.6347 165.704 84.9163 165.45 85.1446 165.113C85.3778 164.772 85.5541 164.354 85.6727 163.858C85.7914 163.359 85.8511 162.785 85.8511 162.137ZM95.1998 166.033V167.198H90.2063V166.033H95.1998ZM90.4668 156.392V167.198H89.1436V156.392H90.4668ZM99.1637 162.04V163.168H95.8171V162.04H99.1637ZM104.438 156.333V167.198H103.169V158.047L100.611 159.057V157.817L104.239 156.333H104.438Z" fill="black"/>
</g>
</svg>
