<svg  class="iso-beaker" viewBox="0 0 172 271" fill="none" xmlns="http://www.w3.org/2000/svg">
<g>
<g id="g28">
<path id="path30" d="M7.97473 31.8517C8.9163 31.324 11.0578 30.7832 12.062 30.6167C20.1676 29.274 25.7663 29.5441 35.4538 31.4711C49.4022 34.2477 68.6726 35.9633 89.9594 35.9633C121.179 35.9633 146.929 32.0547 159.106 26.9326C162.044 25.6962 163.611 24.0109 163.923 22.7912" stroke="#161413" stroke-width="2" stroke-linecap="round" stroke-linejoin="round"/>
<path id="path32" d="M162.742 36.2064V246.064C162.742 254.576 153.53 268.844 91.4828 268.844C29.4352 268.844 20.2232 254.576 20.2232 246.064V49.1424C20.2232 49.1424 21.0831 37.6113 8.50745 36.0345C7.87895 35.9557 5.85871 36.7334 5.16125 36.7107C1.13184 36.578 0.203739 32.5078 6.87556 27.0431C14.2987 20.9643 10.8138 14.2888 25.5674 9.75093C39.6981 5.4051 63.8571 2 91.4828 2C134.847 2 170 9.72606 170 18.9813C170 25.6879 162.742 26.371 162.742 36.2064Z" fill="url(#paint0_linear_36_17)" stroke="#161413" stroke-width="4" stroke-linecap="round" stroke-linejoin="round"/>
<path id="path34" d="M14.7513 33.5694C24.5142 32.6508 27.1851 33.6654 35.6141 35.5275C36.1649 35.6491 36.7395 35.7748 37.3426 35.9053" stroke="#161413" stroke-linecap="round" stroke-linejoin="round"/>
<path id="path36" d="M161.829 30.1125C148.846 37.0705 121.216 40.8237 91.4566 40.8237C75.9818 40.8237 61.5515 39.805 49.3872 38.0465" stroke="#161413" stroke-linecap="round" stroke-linejoin="round"/>
<path id="path38" d="M134.059 9.67633C145.59 11.5509 156.094 14.7101 160.283 17.1876C162.206 18.3252 163.32 19.6389 163.32 21.1846" stroke="#161413" stroke-linecap="round" stroke-linejoin="round"/>
<path id="path40" d="M15.5239 25.7342C18.0158 20.4014 19.4614 15.9989 33.1855 12.4426C47.3486 8.77291 67.7081 6.47153 90.3327 6.47153C101.544 6.47153 112.201 7.03651 121.821 8.05321" stroke="#161413" stroke-linecap="round" stroke-linejoin="round"/>
<path id="path42" d="M158.668 238.706V36.2348C158.668 34.9149 159.229 32.8766 159.705 32.1991" stroke="#161413" stroke-linecap="round" stroke-linejoin="round"/>
<path id="path44" d="M24.2447 238.706C24.2447 238.706 24.2447 54.8779 24.2447 50.0693C24.2447 41.4847 20.923 36.0414 13.8986 34.6338" stroke="#161413" stroke-linecap="round" stroke-linejoin="round"/>
<path id="path46" d="M35.9723 257.227C26.4384 253.308 24.2557 248.342 24.2557 244.149" stroke="#161413" stroke-linecap="round" stroke-linejoin="round"/>
<path id="path48" d="M158.58 244.149C158.58 252.534 149.909 264.016 91.4962 264.016C71.3856 264.016 57.1709 262.654 47.1766 260.526" stroke="#161413" stroke-linecap="round" stroke-linejoin="round"/>
<path id="path50" d="M151.704 251.357C151.704 247.114 141.199 243.376 125.216 241.163" stroke="#161413" stroke-linecap="round" stroke-linejoin="round"/>
<path id="path52" d="M107.366 239.486C102.297 239.203 96.9634 239.05 91.4567 239.05C58.184 239.05 31.209 244.56 31.209 251.357" stroke="#161413" stroke-linecap="round" stroke-linejoin="round"/>
<path id="path54" d="M115.827 229.735C108.235 229.021 100.028 228.627 91.4568 228.627C62.8348 228.627 38.2122 232.976 27.2914 239.209" stroke="#161413" stroke-linecap="round" stroke-linejoin="round"/>
<path id="path56" d="M155.621 239.21C151.705 236.975 146.629 235.176 139.84 233.536" stroke="#161413" stroke-linecap="round" stroke-linejoin="round"/>
</g>
<g id="iso-prop-liq">
<path id="Vector 1" d="M157.737 136H24V243.83C24 259.589 38.9511 263 93.6441 263C137.55 263 160.765 257.009 157.737 246.226V136Z" fill="url(#paint1_linear_36_17)"/>
<ellipse id="Ellipse 1" cx="91" cy="150.5" rx="67" ry="8.5" fill="#80EEE1" fill-opacity="0.55"/>
<g id="ice">
<g id="Layer_1">
<path id="Vector" d="M83.5289 114L99.2061 118.288C99.2061 118.288 99.9344 136.337 99.117 143.507C92.7477 141.73 81.7216 137.639 81.7216 137.639C81.7216 137.639 64.8355 145.276 63.4093 144.156C61.9834 143.035 62.4692 116.92 62.4692 116.92L83.5291 114L83.5289 114Z" fill="#30EEFB"/>
<path id="Vector_2" d="M101.619 132.879C102.32 133.161 101.895 133.198 101.619 132.879V132.879Z" fill="#65F3FA"/>
<path id="Vector_3" d="M98.8946 143.293C98.8946 143.289 98.8928 143.289 98.8946 143.293Z" fill="#65F3FA"/>
<path id="Vector_4" d="M83.303 119.821C83.0836 125.93 82.716 132.03 82.3253 138.132C82.2957 138.595 82.4942 139.77 83.2215 139.77C83.9888 139.77 84.0879 138.596 84.1176 138.132C84.5083 132.03 84.8759 125.931 85.0954 119.821C85.112 119.358 84.9352 118.183 84.1992 118.183C83.4393 118.184 83.3192 119.358 83.303 119.822V119.821Z" fill="#3EC3F7"/>
<path id="Vector_5" opacity="0.65" d="M83.6382 114.03C86.275 114.855 99.5869 117.307 99.5177 118.281C99.4689 118.963 84.5082 121.425 83.4847 121.128C77.201 119.305 68.6877 117.229 62 117.233L83.6371 114.03H83.6382Z" fill="#D8FCFD"/>
<path id="Vector_6" d="M82.1094 137.396C82.1094 137.396 99.1181 142.413 99.1181 143.508C99.1181 144.602 83.3185 147.855 83.3185 147.855C83.3185 147.855 67.747 145.554 63.6673 143.931C59.5892 142.31 82.1087 137.396 82.1087 137.396L82.1094 137.396Z" fill="#3EC3F7"/>
<g id="Group" opacity="0.4">
<path id="Vector_7" opacity="0.4" fill-rule="evenodd" clip-rule="evenodd" d="M98.8587 118.608C97.1985 119.079 84.242 120.83 84.1904 121.669C83.9119 126.194 83.7262 130.728 83.6982 135.261C83.6823 137.847 83.6776 140.457 83.9816 143.032C84.0007 143.193 84.6978 146.907 85.4979 145.622C86.5959 143.858 85.1627 140.144 84.8326 138.297C84.4067 135.91 85.1935 133.742 86.1263 131.482C87.6197 127.863 91.0894 130.121 90.9258 133.319C90.8092 135.596 89.1746 138.541 88.6737 140.86C88.3419 142.397 87.9071 144.966 89.1647 146.324C90.2805 147.529 95.518 144.598 96.5775 144.083C101.238 141.817 99.8101 137.541 99.7832 133.24C99.7645 130.223 99.7137 127.205 99.5672 124.191C99.5081 122.996 99.9024 119.574 98.8575 118.61" fill="#D8FCFD"/>
</g>
<g id="Group_2" opacity="0.4">
<path id="Vector_8" opacity="0.4" fill-rule="evenodd" clip-rule="evenodd" d="M77.6865 116.242C82.7635 117.574 86.1792 121.716 91.6221 119.412C89.4032 117.644 81.9883 115.67 77.6874 116.242H77.6865Z" fill="#CAFCFC"/>
<path id="Vector_9" opacity="0.4" d="M88.2946 121.776C88.2972 121.71 88.2472 121.644 88.3275 121.613C88.5757 121.544 88.787 121.773 89.0392 121.687L89.0488 121.579C89.2464 121.611 89.457 121.655 89.6718 121.673C90.0526 121.61 90.4207 121.509 90.7683 121.383C90.7475 121.348 90.733 121.315 90.764 121.292C90.9014 121.224 91.1203 121.212 91.3267 121.152L91.4102 121.105C91.4249 121.076 91.417 121.039 91.4121 121.016C91.5049 120.989 91.5901 120.972 91.6703 120.958L91.9967 120.745L92.1574 120.636L92.1973 120.609L92.2172 120.595L92.2197 120.594L92.2202 120.593C92.3709 119.629 91.8842 122.751 92.558 118.431L92.5565 118.431L92.5503 118.428L92.5379 118.422L92.4387 118.378C92.1751 118.268 91.9069 118.133 91.6512 118.068C91.1343 117.9 90.6224 117.793 90.0995 117.694C89.8552 117.699 89.615 117.707 89.408 117.669C89.1116 117.595 88.781 117.403 88.5109 117.288C88.4021 117.651 87.6689 117.607 87.661 118.01C87.4863 117.945 87.2237 117.843 87.1719 117.942C87.0179 118.233 86.7506 118.543 86.2276 118.593C86.0347 118.58 85.7955 118.379 85.7106 118.425C85.5784 118.498 85.8774 118.703 85.7445 118.775C87.0352 119.242 88.356 119.545 89.4849 120.102C89.6132 120.109 89.841 120.199 90.1335 120.331C90.2143 120.363 90.2593 120.401 90.3293 120.438L90.4293 120.495L90.4809 120.525L90.5072 120.54L90.5203 120.547L90.5269 120.551L90.5303 120.553L90.532 120.554L90.5329 120.554C90.448 121.102 91.2763 115.789 90.925 118.038C90.7469 118.114 90.5595 118.213 90.3652 118.277C89.5919 118.585 88.7591 118.643 88.4234 118.6L88.3623 118.606C87.9947 118.582 87.5494 118.558 87.1882 118.633C87.0177 118.691 86.8323 118.763 86.6414 118.819L86.7942 119.051C86.6293 119 86.466 118.952 86.3797 118.998C85.9687 119.045 86.0995 119.283 86.1658 119.574C86.2374 119.712 86.0337 119.838 86.1718 119.992C86.0464 119.956 85.9869 119.931 85.8635 119.89C85.8128 119.989 86.2656 119.95 86.1242 120.091C86.0139 120.021 85.8586 120.039 85.7333 119.998C85.7263 120.149 86.1542 120.18 86.0925 120.308C86.0072 120.325 85.7951 120.018 85.7095 120.181C85.6922 120.213 85.8194 120.257 85.8831 120.279C85.4694 120.215 85.1811 120.296 85.482 120.599C85.351 120.556 85.2022 120.421 85.0577 120.399L85.0575 120.402C85.1223 120.43 85.2243 120.504 85.2859 120.528L85.0594 120.441L85.0708 120.524C85.12 120.564 85.1714 120.6 85.2308 120.623L85.079 120.565C85.0951 120.632 85.1186 120.7 85.1482 120.766C85.2877 120.939 85.4221 121.15 85.5261 121.187C86.3523 121.522 87.3094 121.746 88.2934 121.775L88.2946 121.776Z" fill="#D6EEF4"/>
</g>
<path id="Vector_10" opacity="0.5" fill-rule="evenodd" clip-rule="evenodd" d="M64.6481 141.936C64.1659 136.672 64.1119 130.49 64.4856 123.391C68.1825 116.204 68.2366 122.387 64.648 141.936H64.6481Z" fill="#D8FCFD"/>
<g id="Group_3" opacity="0.65">
<path id="Vector_11" opacity="0.65" fill-rule="evenodd" clip-rule="evenodd" d="M83.9501 121.673C83.0501 119.111 67.5035 117.588 64.5732 117.466C63.0142 117.401 63.2476 133.482 63.2518 134.959C63.2595 137.71 63.2117 140.505 63.5578 143.244C63.8962 145.923 68.8423 145.569 71.2966 145.921C72.4167 146.082 80.2789 147.984 78.9274 145.587C77.4788 143.018 75.9629 143.564 73.2049 143.736C72.5271 143.777 68.1741 142.407 68.1991 141.94C68.2069 141.79 70.9883 140.702 71.2527 140.505C72.7494 139.387 72.8174 137.885 72.6295 136.321C72.2401 133.075 73.1651 127.114 74.0781 124.658C74.8334 122.627 77.3796 130.03 77.3796 130.03C77.3796 130.03 75.545 134.728 76.5846 137.849C76.9305 138.887 77.7329 143.475 79.7807 143.137C82.4471 142.697 82.6619 140.347 82.8354 138.587C83.145 135.442 83.4282 132.295 83.6706 129.146C83.8373 126.976 84.6994 123.81 83.9502 121.674" fill="#D8FCFD"/>
</g>
<g id="Group_4" opacity="0.45">
<path id="Vector_12" opacity="0.45" d="M79.0851 126.312C79.1573 126.307 79.2216 126.239 79.2666 126.329C79.3754 126.614 79.1575 126.873 79.2542 127.16L79.3727 127.171C79.3457 127.403 79.3046 127.644 79.2739 127.889C79.3207 128.333 79.3842 128.774 79.4494 129.214C79.4915 129.201 79.5305 129.193 79.548 129.237C79.5868 129.419 79.5561 129.676 79.5547 129.94L79.5798 130.056C79.6063 130.086 79.6478 130.092 79.6731 130.096C79.6735 130.216 79.6686 130.323 79.6575 130.421C79.9133 131.714 80.1568 133.041 80.2913 134.498C80.3644 134.809 80.4374 135.124 80.4531 135.423C80.4406 135.863 80.2631 136.402 80.1806 136.819C80.6035 136.816 80.56 137.888 81.0153 137.769C80.9499 138.058 80.8044 138.483 80.9062 138.533C81.2127 138.684 81.5677 139.005 81.4628 139.875C81.3775 140.208 81.0364 140.639 81.0545 140.774C81.082 140.989 81.4564 140.456 81.4852 140.669C82.664 138.3 82.8249 135.969 82.989 133.624C82.9642 132.796 82.751 127.475 82.5578 126.114L82.5368 125.99C82.4699 125.245 82.3015 124.344 82.0269 123.738C81.873 123.465 81.7115 123.193 81.5301 122.922C81.4955 123.069 81.4544 123.205 81.4071 123.324C81.3619 123.03 81.295 122.733 81.1992 122.635C80.8847 122.046 80.7644 122.445 80.5419 122.731C80.4594 122.922 80.2234 122.732 80.1595 123.016C80.1228 122.827 80.1044 122.733 80.0679 122.544C79.9485 122.545 80.2573 123.11 80.0402 123.016C80.0419 122.828 79.9304 122.639 79.8884 122.454C79.7539 122.549 79.9776 123.109 79.8196 123.109C79.7616 123.017 79.9098 122.547 79.711 122.55C79.6719 122.551 79.7076 122.737 79.7256 122.83C79.5356 122.271 79.2588 122.026 79.193 122.565C79.1517 122.393 79.1651 122.131 79.0896 121.954L79.0869 121.957C79.1055 122.049 79.1091 122.215 79.1294 122.299L79.0552 121.988L78.9914 122.061C78.9891 122.143 78.9914 122.225 79.0104 122.305L78.9614 122.1L78.8324 122.315C78.777 122.583 78.6592 122.845 78.6815 122.982C78.8412 124.063 78.9632 125.19 79.0844 126.309L79.0851 126.312Z" fill="#DDFCFD"/>
</g>
</g>
<g id="Layer_1_2">
<path id="Vector_13" d="M137.529 113L153.206 117.288C153.206 117.288 153.934 135.337 153.117 142.507C146.748 140.73 135.722 136.639 135.722 136.639C135.722 136.639 118.836 144.276 117.409 143.156C115.983 142.035 116.469 115.92 116.469 115.92L137.529 113L137.529 113Z" fill="#30EEFB"/>
<path id="Vector_14" d="M155.619 131.879C156.32 132.161 155.895 132.198 155.619 131.879V131.879Z" fill="#65F3FA"/>
<path id="Vector_15" d="M152.895 142.293C152.895 142.289 152.893 142.289 152.895 142.293Z" fill="#65F3FA"/>
<path id="Vector_16" d="M137.303 118.821C137.084 124.93 136.716 131.03 136.325 137.132C136.296 137.595 136.494 138.77 137.221 138.77C137.989 138.77 138.088 137.596 138.118 137.132C138.508 131.03 138.876 124.931 139.095 118.821C139.112 118.358 138.935 117.183 138.199 117.183C137.439 117.184 137.319 118.358 137.303 118.822V118.821Z" fill="#3EC3F7"/>
<path id="Vector_17" opacity="0.65" d="M137.638 113.03C140.275 113.855 153.587 116.307 153.518 117.281C153.469 117.963 138.508 120.425 137.485 120.128C131.201 118.305 122.688 116.229 116 116.233L137.637 113.03H137.638Z" fill="#D8FCFD"/>
<path id="Vector_18" d="M136.109 136.396C136.109 136.396 153.118 141.413 153.118 142.508C153.118 143.602 137.318 146.855 137.318 146.855C137.318 146.855 121.747 144.554 117.667 142.931C113.589 141.31 136.109 136.396 136.109 136.396L136.109 136.396Z" fill="#3EC3F7"/>
<g id="Group_5" opacity="0.4">
<path id="Vector_19" opacity="0.4" fill-rule="evenodd" clip-rule="evenodd" d="M152.859 117.608C151.199 118.079 138.242 119.83 138.19 120.669C137.912 125.194 137.726 129.728 137.698 134.261C137.682 136.847 137.678 139.457 137.982 142.032C138.001 142.193 138.698 145.907 139.498 144.622C140.596 142.858 139.163 139.144 138.833 137.297C138.407 134.91 139.194 132.742 140.126 130.482C141.62 126.863 145.089 129.121 144.926 132.319C144.809 134.596 143.175 137.541 142.674 139.86C142.342 141.397 141.907 143.966 143.165 145.324C144.281 146.529 149.518 143.598 150.577 143.083C155.238 140.817 153.81 136.541 153.783 132.24C153.764 129.223 153.714 126.205 153.567 123.191C153.508 121.996 153.902 118.574 152.857 117.61" fill="#D8FCFD"/>
</g>
<g id="Group_6" opacity="0.4">
<path id="Vector_20" opacity="0.4" fill-rule="evenodd" clip-rule="evenodd" d="M131.687 115.242C136.763 116.574 140.179 120.716 145.622 118.412C143.403 116.644 135.988 114.67 131.687 115.242H131.687Z" fill="#CAFCFC"/>
<path id="Vector_21" opacity="0.4" d="M142.295 120.776C142.297 120.71 142.247 120.644 142.328 120.613C142.576 120.544 142.787 120.773 143.039 120.687L143.049 120.579C143.246 120.611 143.457 120.655 143.672 120.673C144.053 120.61 144.421 120.509 144.768 120.383C144.748 120.348 144.733 120.315 144.764 120.292C144.901 120.224 145.12 120.212 145.327 120.152L145.41 120.105C145.425 120.076 145.417 120.039 145.412 120.016C145.505 119.989 145.59 119.972 145.67 119.958L145.997 119.745L146.157 119.636L146.197 119.609L146.217 119.595L146.22 119.594L146.22 119.593C146.371 118.629 145.884 121.751 146.558 117.431L146.556 117.431L146.55 117.428L146.538 117.422L146.439 117.378C146.175 117.268 145.907 117.133 145.651 117.068C145.134 116.9 144.622 116.793 144.1 116.694C143.855 116.699 143.615 116.707 143.408 116.669C143.112 116.595 142.781 116.403 142.511 116.288C142.402 116.651 141.669 116.607 141.661 117.01C141.486 116.945 141.224 116.843 141.172 116.942C141.018 117.233 140.751 117.543 140.228 117.593C140.035 117.58 139.795 117.379 139.711 117.425C139.578 117.498 139.877 117.703 139.745 117.775C141.035 118.242 142.356 118.545 143.485 119.102C143.613 119.109 143.841 119.199 144.133 119.331C144.214 119.363 144.259 119.401 144.329 119.438L144.429 119.495L144.481 119.525L144.507 119.54L144.52 119.547L144.527 119.551L144.53 119.553L144.532 119.554L144.533 119.554C144.448 120.102 145.276 114.789 144.925 117.038C144.747 117.114 144.559 117.213 144.365 117.277C143.592 117.585 142.759 117.643 142.423 117.6L142.362 117.606C141.995 117.582 141.549 117.558 141.188 117.633C141.018 117.691 140.832 117.763 140.641 117.819L140.794 118.051C140.629 118 140.466 117.952 140.38 117.998C139.969 118.045 140.099 118.283 140.166 118.574C140.237 118.712 140.034 118.838 140.172 118.992C140.046 118.956 139.987 118.931 139.864 118.89C139.813 118.989 140.266 118.95 140.124 119.091C140.014 119.021 139.859 119.039 139.733 118.998C139.726 119.149 140.154 119.18 140.092 119.308C140.007 119.325 139.795 119.018 139.709 119.181C139.692 119.213 139.819 119.257 139.883 119.279C139.469 119.215 139.181 119.296 139.482 119.599C139.351 119.556 139.202 119.421 139.058 119.399L139.057 119.402C139.122 119.43 139.224 119.504 139.286 119.528L139.059 119.441L139.071 119.524C139.12 119.564 139.171 119.6 139.231 119.623L139.079 119.565C139.095 119.632 139.119 119.7 139.148 119.766C139.288 119.939 139.422 120.15 139.526 120.187C140.352 120.522 141.309 120.746 142.293 120.775L142.295 120.776Z" fill="#D6EEF4"/>
</g>
<path id="Vector_22" opacity="0.5" fill-rule="evenodd" clip-rule="evenodd" d="M118.648 140.936C118.166 135.672 118.112 129.49 118.486 122.391C122.183 115.204 122.237 121.387 118.648 140.936H118.648Z" fill="#D8FCFD"/>
<g id="Group_7" opacity="0.65">
<path id="Vector_23" opacity="0.65" fill-rule="evenodd" clip-rule="evenodd" d="M137.95 120.673C137.05 118.111 121.503 116.588 118.573 116.466C117.014 116.401 117.248 132.482 117.252 133.959C117.259 136.71 117.212 139.505 117.558 142.244C117.896 144.923 122.842 144.569 125.297 144.921C126.417 145.082 134.279 146.984 132.927 144.587C131.479 142.018 129.963 142.564 127.205 142.736C126.527 142.777 122.174 141.407 122.199 140.94C122.207 140.79 124.988 139.702 125.253 139.505C126.749 138.387 126.817 136.885 126.63 135.321C126.24 132.075 127.165 126.114 128.078 123.658C128.833 121.627 131.38 129.03 131.38 129.03C131.38 129.03 129.545 133.728 130.585 136.849C130.931 137.887 131.733 142.475 133.781 142.137C136.447 141.697 136.662 139.347 136.835 137.587C137.145 134.442 137.428 131.295 137.671 128.146C137.837 125.976 138.699 122.81 137.95 120.674" fill="#D8FCFD"/>
</g>
<g id="Group_8" opacity="0.45">
<path id="Vector_24" opacity="0.45" d="M133.085 125.312C133.157 125.307 133.222 125.239 133.267 125.329C133.375 125.614 133.157 125.873 133.254 126.16L133.373 126.171C133.346 126.403 133.305 126.644 133.274 126.889C133.321 127.333 133.384 127.774 133.449 128.214C133.492 128.201 133.53 128.193 133.548 128.237C133.587 128.419 133.556 128.676 133.555 128.94L133.58 129.056C133.606 129.086 133.648 129.092 133.673 129.096C133.673 129.216 133.669 129.323 133.657 129.421C133.913 130.714 134.157 132.041 134.291 133.498C134.364 133.809 134.437 134.124 134.453 134.423C134.441 134.863 134.263 135.402 134.181 135.819C134.604 135.816 134.56 136.888 135.015 136.769C134.95 137.058 134.804 137.483 134.906 137.533C135.213 137.684 135.568 138.005 135.463 138.875C135.378 139.208 135.036 139.639 135.054 139.774C135.082 139.989 135.456 139.456 135.485 139.669C136.664 137.3 136.825 134.969 136.989 132.624C136.964 131.796 136.751 126.475 136.558 125.114L136.537 124.99C136.47 124.245 136.302 123.344 136.027 122.738C135.873 122.465 135.711 122.193 135.53 121.922C135.495 122.069 135.454 122.205 135.407 122.324C135.362 122.03 135.295 121.733 135.199 121.635C134.885 121.046 134.764 121.445 134.542 121.731C134.459 121.922 134.223 121.732 134.16 122.016C134.123 121.827 134.104 121.733 134.068 121.544C133.948 121.545 134.257 122.11 134.04 122.016C134.042 121.828 133.93 121.639 133.888 121.454C133.754 121.549 133.978 122.109 133.82 122.109C133.762 122.017 133.91 121.547 133.711 121.55C133.672 121.551 133.708 121.737 133.726 121.83C133.536 121.271 133.259 121.026 133.193 121.565C133.152 121.393 133.165 121.131 133.09 120.954L133.087 120.957C133.105 121.049 133.109 121.215 133.129 121.299L133.055 120.988L132.991 121.061C132.989 121.143 132.991 121.225 133.01 121.305L132.961 121.1L132.832 121.315C132.777 121.583 132.659 121.845 132.681 121.982C132.841 123.063 132.963 124.19 133.084 125.309L133.085 125.312Z" fill="#DDFCFD"/>
</g>
</g>
<g id="Layer_1_3">
<path id="Vector_25" d="M86.5289 143L102.206 147.288C102.206 147.288 102.934 165.337 102.117 172.507C95.7477 170.73 84.7216 166.639 84.7216 166.639C84.7216 166.639 67.8355 174.276 66.4093 173.156C64.9834 172.035 65.4692 145.92 65.4692 145.92L86.5291 143L86.5289 143Z" fill="#30EEFB"/>
<path id="Vector_26" d="M104.619 161.879C105.32 162.161 104.895 162.198 104.619 161.879V161.879Z" fill="#65F3FA"/>
<path id="Vector_27" d="M101.895 172.293C101.895 172.289 101.893 172.289 101.895 172.293Z" fill="#65F3FA"/>
<path id="Vector_28" d="M86.303 148.821C86.0836 154.93 85.716 161.03 85.3253 167.132C85.2957 167.595 85.4942 168.77 86.2215 168.77C86.9888 168.77 87.0879 167.596 87.1176 167.132C87.5083 161.03 87.8759 154.931 88.0954 148.821C88.112 148.358 87.9352 147.183 87.1992 147.183C86.4393 147.184 86.3192 148.358 86.303 148.822V148.821Z" fill="#3EC3F7"/>
<path id="Vector_29" opacity="0.65" d="M86.6382 143.03C89.275 143.855 102.587 146.307 102.518 147.281C102.469 147.963 87.5082 150.425 86.4847 150.128C80.201 148.305 71.6877 146.229 65 146.233L86.6371 143.03H86.6382Z" fill="#D8FCFD"/>
<path id="Vector_30" d="M85.1094 166.396C85.1094 166.396 102.118 171.413 102.118 172.508C102.118 173.602 86.3185 176.855 86.3185 176.855C86.3185 176.855 70.747 174.554 66.6673 172.931C62.5892 171.31 85.1087 166.396 85.1087 166.396L85.1094 166.396Z" fill="#3EC3F7"/>
<g id="Group_9" opacity="0.4">
<path id="Vector_31" opacity="0.4" fill-rule="evenodd" clip-rule="evenodd" d="M101.859 147.608C100.199 148.079 87.242 149.83 87.1904 150.669C86.9119 155.194 86.7262 159.728 86.6982 164.261C86.6823 166.847 86.6776 169.457 86.9816 172.032C87.0007 172.193 87.6978 175.907 88.4979 174.622C89.5959 172.858 88.1627 169.144 87.8326 167.297C87.4067 164.91 88.1935 162.742 89.1263 160.482C90.6197 156.863 94.0894 159.121 93.9258 162.319C93.8092 164.596 92.1746 167.541 91.6737 169.86C91.3419 171.397 90.9071 173.966 92.1647 175.324C93.2805 176.529 98.518 173.598 99.5775 173.083C104.238 170.817 102.81 166.541 102.783 162.24C102.764 159.223 102.714 156.205 102.567 153.191C102.508 151.996 102.902 148.574 101.857 147.61" fill="#D8FCFD"/>
</g>
<g id="Group_10" opacity="0.4">
<path id="Vector_32" opacity="0.4" fill-rule="evenodd" clip-rule="evenodd" d="M80.6865 145.242C85.7635 146.574 89.1792 150.716 94.6221 148.412C92.4032 146.644 84.9883 144.67 80.6874 145.242H80.6865Z" fill="#CAFCFC"/>
<path id="Vector_33" opacity="0.4" d="M91.2946 150.776C91.2972 150.71 91.2472 150.644 91.3275 150.613C91.5757 150.544 91.787 150.773 92.0392 150.687L92.0488 150.579C92.2464 150.611 92.457 150.655 92.6718 150.673C93.0526 150.61 93.4207 150.509 93.7683 150.383C93.7475 150.348 93.733 150.315 93.764 150.292C93.9014 150.224 94.1203 150.212 94.3267 150.152L94.4102 150.105C94.4249 150.076 94.417 150.039 94.4121 150.016C94.5049 149.989 94.5901 149.972 94.6703 149.958L94.9967 149.745L95.1574 149.636L95.1973 149.609L95.2172 149.595L95.2197 149.594L95.2202 149.593C95.3709 148.629 94.8842 151.751 95.558 147.431L95.5565 147.431L95.5503 147.428L95.5379 147.422L95.4387 147.378C95.1751 147.268 94.9069 147.133 94.6512 147.068C94.1343 146.9 93.6224 146.793 93.0995 146.694C92.8552 146.699 92.615 146.707 92.408 146.669C92.1116 146.595 91.781 146.403 91.5109 146.288C91.4021 146.651 90.6689 146.607 90.661 147.01C90.4863 146.945 90.2237 146.843 90.1719 146.942C90.0179 147.233 89.7506 147.543 89.2276 147.593C89.0347 147.58 88.7955 147.379 88.7106 147.425C88.5784 147.498 88.8774 147.703 88.7445 147.775C90.0352 148.242 91.356 148.545 92.4849 149.102C92.6132 149.109 92.841 149.199 93.1335 149.331C93.2143 149.363 93.2593 149.401 93.3293 149.438L93.4293 149.495L93.4809 149.525L93.5072 149.54L93.5203 149.547L93.5269 149.551L93.5303 149.553L93.532 149.554L93.5329 149.554C93.448 150.102 94.2763 144.789 93.925 147.038C93.7469 147.114 93.5595 147.213 93.3652 147.277C92.5919 147.585 91.7591 147.643 91.4234 147.6L91.3623 147.606C90.9947 147.582 90.5494 147.558 90.1882 147.633C90.0177 147.691 89.8323 147.763 89.6414 147.819L89.7942 148.051C89.6293 148 89.466 147.952 89.3797 147.998C88.9687 148.045 89.0995 148.283 89.1658 148.574C89.2374 148.712 89.0337 148.838 89.1718 148.992C89.0464 148.956 88.9869 148.931 88.8635 148.89C88.8128 148.989 89.2656 148.95 89.1242 149.091C89.0139 149.021 88.8586 149.039 88.7333 148.998C88.7263 149.149 89.1542 149.18 89.0925 149.308C89.0072 149.325 88.7951 149.018 88.7095 149.181C88.6922 149.213 88.8194 149.257 88.8831 149.279C88.4694 149.215 88.1811 149.296 88.482 149.599C88.351 149.556 88.2022 149.421 88.0577 149.399L88.0575 149.402C88.1223 149.43 88.2243 149.504 88.2859 149.528L88.0594 149.441L88.0708 149.524C88.12 149.564 88.1714 149.6 88.2308 149.623L88.079 149.565C88.0951 149.632 88.1186 149.7 88.1482 149.766C88.2877 149.939 88.4221 150.15 88.5261 150.187C89.3523 150.522 90.3094 150.746 91.2934 150.775L91.2946 150.776Z" fill="#D6EEF4"/>
</g>
<path id="Vector_34" opacity="0.5" fill-rule="evenodd" clip-rule="evenodd" d="M67.6481 170.936C67.1659 165.672 67.1119 159.49 67.4856 152.391C71.1825 145.204 71.2366 151.387 67.648 170.936H67.6481Z" fill="#D8FCFD"/>
<g id="Group_11" opacity="0.65">
<path id="Vector_35" opacity="0.65" fill-rule="evenodd" clip-rule="evenodd" d="M86.9501 150.673C86.0501 148.111 70.5035 146.588 67.5732 146.466C66.0142 146.401 66.2476 162.482 66.2518 163.959C66.2595 166.71 66.2117 169.505 66.5578 172.244C66.8962 174.923 71.8423 174.569 74.2966 174.921C75.4167 175.082 83.2789 176.984 81.9274 174.587C80.4788 172.018 78.9629 172.564 76.2049 172.736C75.5271 172.777 71.1741 171.407 71.1991 170.94C71.2069 170.79 73.9883 169.702 74.2527 169.505C75.7494 168.387 75.8174 166.885 75.6295 165.321C75.2401 162.075 76.1651 156.114 77.0781 153.658C77.8334 151.627 80.3796 159.03 80.3796 159.03C80.3796 159.03 78.545 163.728 79.5846 166.849C79.9305 167.887 80.7329 172.475 82.7807 172.137C85.4471 171.697 85.6619 169.347 85.8354 167.587C86.145 164.442 86.4282 161.295 86.6706 158.146C86.8373 155.976 87.6994 152.81 86.9502 150.674" fill="#D8FCFD"/>
</g>
<g id="Group_12" opacity="0.45">
<path id="Vector_36" opacity="0.45" d="M82.0851 155.312C82.1573 155.307 82.2216 155.239 82.2666 155.329C82.3754 155.614 82.1575 155.873 82.2542 156.16L82.3727 156.171C82.3457 156.403 82.3046 156.644 82.2739 156.889C82.3207 157.333 82.3842 157.774 82.4494 158.214C82.4915 158.201 82.5305 158.193 82.548 158.237C82.5868 158.419 82.5561 158.676 82.5547 158.94L82.5798 159.056C82.6063 159.086 82.6478 159.092 82.6731 159.096C82.6735 159.216 82.6686 159.323 82.6575 159.421C82.9133 160.714 83.1568 162.041 83.2913 163.498C83.3644 163.809 83.4374 164.124 83.4531 164.423C83.4406 164.863 83.2631 165.402 83.1806 165.819C83.6035 165.816 83.56 166.888 84.0153 166.769C83.9499 167.058 83.8044 167.483 83.9062 167.533C84.2127 167.684 84.5677 168.005 84.4628 168.875C84.3775 169.208 84.0364 169.639 84.0545 169.774C84.082 169.989 84.4564 169.456 84.4852 169.669C85.664 167.3 85.8249 164.969 85.989 162.624C85.9642 161.796 85.751 156.475 85.5578 155.114L85.5368 154.99C85.4699 154.245 85.3015 153.344 85.0269 152.738C84.873 152.465 84.7115 152.193 84.5301 151.922C84.4955 152.069 84.4544 152.205 84.4071 152.324C84.3619 152.03 84.295 151.733 84.1992 151.635C83.8847 151.046 83.7644 151.445 83.5419 151.731C83.4594 151.922 83.2234 151.732 83.1595 152.016C83.1228 151.827 83.1044 151.733 83.0679 151.544C82.9485 151.545 83.2573 152.11 83.0402 152.016C83.0419 151.828 82.9304 151.639 82.8884 151.454C82.7539 151.549 82.9776 152.109 82.8196 152.109C82.7616 152.017 82.9098 151.547 82.711 151.55C82.6719 151.551 82.7076 151.737 82.7256 151.83C82.5356 151.271 82.2588 151.026 82.193 151.565C82.1517 151.393 82.1651 151.131 82.0896 150.954L82.0869 150.957C82.1055 151.049 82.1091 151.215 82.1294 151.299L82.0552 150.988L81.9914 151.061C81.9891 151.143 81.9914 151.225 82.0104 151.305L81.9614 151.1L81.8324 151.315C81.777 151.583 81.6592 151.845 81.6815 151.982C81.8412 153.063 81.9632 154.19 82.0844 155.309L82.0851 155.312Z" fill="#DDFCFD"/>
</g>
</g>
<g id="Layer_1_4">
<path id="Vector_37" d="M57.5289 125L73.2061 129.288C73.2061 129.288 73.9344 147.337 73.117 154.507C66.7477 152.73 55.7216 148.639 55.7216 148.639C55.7216 148.639 38.8355 156.276 37.4093 155.156C35.9834 154.035 36.4692 127.92 36.4692 127.92L57.5291 125L57.5289 125Z" fill="#30EEFB"/>
<path id="Vector_38" d="M75.6189 143.879C76.3197 144.161 75.8949 144.198 75.6189 143.879V143.879Z" fill="#65F3FA"/>
<path id="Vector_39" d="M72.8946 154.293C72.8946 154.289 72.8928 154.289 72.8946 154.293Z" fill="#65F3FA"/>
<path id="Vector_40" d="M57.303 130.821C57.0836 136.93 56.716 143.03 56.3253 149.132C56.2957 149.595 56.4942 150.77 57.2215 150.77C57.9888 150.77 58.0879 149.596 58.1176 149.132C58.5083 143.03 58.8759 136.931 59.0954 130.821C59.112 130.358 58.9352 129.183 58.1992 129.183C57.4393 129.184 57.3192 130.358 57.303 130.822V130.821Z" fill="#3EC3F7"/>
<path id="Vector_41" opacity="0.65" d="M57.6382 125.03C60.275 125.855 73.5869 128.307 73.5177 129.281C73.4689 129.963 58.5082 132.425 57.4847 132.128C51.201 130.305 42.6877 128.229 36 128.233L57.6371 125.03H57.6382Z" fill="#D8FCFD"/>
<path id="Vector_42" d="M56.1094 148.396C56.1094 148.396 73.1181 153.413 73.1181 154.508C73.1181 155.602 57.3185 158.855 57.3185 158.855C57.3185 158.855 41.747 156.554 37.6673 154.931C33.5892 153.31 56.1087 148.396 56.1087 148.396L56.1094 148.396Z" fill="#3EC3F7"/>
<g id="Group_13" opacity="0.4">
<path id="Vector_43" opacity="0.4" fill-rule="evenodd" clip-rule="evenodd" d="M72.8587 129.608C71.1985 130.079 58.242 131.83 58.1904 132.669C57.9119 137.194 57.7262 141.728 57.6982 146.261C57.6823 148.847 57.6776 151.457 57.9816 154.032C58.0007 154.193 58.6978 157.907 59.4979 156.622C60.5959 154.858 59.1627 151.144 58.8326 149.297C58.4067 146.91 59.1935 144.742 60.1263 142.482C61.6197 138.863 65.0894 141.121 64.9258 144.319C64.8092 146.596 63.1746 149.541 62.6737 151.86C62.3419 153.397 61.9071 155.966 63.1647 157.324C64.2805 158.529 69.518 155.598 70.5775 155.083C75.2382 152.817 73.8101 148.541 73.7832 144.24C73.7645 141.223 73.7137 138.205 73.5672 135.191C73.5081 133.996 73.9024 130.574 72.8575 129.61" fill="#D8FCFD"/>
</g>
<g id="Group_14" opacity="0.4">
<path id="Vector_44" opacity="0.4" fill-rule="evenodd" clip-rule="evenodd" d="M51.6865 127.242C56.7635 128.574 60.1792 132.716 65.6221 130.412C63.4032 128.644 55.9883 126.67 51.6874 127.242H51.6865Z" fill="#CAFCFC"/>
<path id="Vector_45" opacity="0.4" d="M62.2946 132.776C62.2972 132.71 62.2472 132.644 62.3275 132.613C62.5757 132.544 62.787 132.773 63.0392 132.687L63.0488 132.579C63.2464 132.611 63.457 132.655 63.6718 132.673C64.0526 132.61 64.4207 132.509 64.7683 132.383C64.7475 132.348 64.733 132.315 64.764 132.292C64.9014 132.224 65.1203 132.212 65.3267 132.152L65.4102 132.105C65.4249 132.076 65.417 132.039 65.4121 132.016C65.5049 131.989 65.5901 131.972 65.6703 131.958L65.9967 131.745L66.1574 131.636L66.1973 131.609L66.2172 131.595L66.2197 131.594L66.2202 131.593C66.3709 130.629 65.8842 133.751 66.558 129.431L66.5565 129.431L66.5503 129.428L66.5379 129.422L66.4387 129.378C66.1751 129.268 65.9069 129.133 65.6512 129.068C65.1343 128.9 64.6224 128.793 64.0995 128.694C63.8552 128.699 63.615 128.707 63.408 128.669C63.1116 128.595 62.781 128.403 62.5109 128.288C62.4021 128.651 61.6689 128.607 61.661 129.01C61.4863 128.945 61.2237 128.843 61.1719 128.942C61.0179 129.233 60.7506 129.543 60.2276 129.593C60.0347 129.58 59.7955 129.379 59.7106 129.425C59.5784 129.498 59.8774 129.703 59.7445 129.775C61.0352 130.242 62.356 130.545 63.4849 131.102C63.6132 131.109 63.841 131.199 64.1335 131.331C64.2143 131.363 64.2593 131.401 64.3293 131.438L64.4293 131.495L64.4809 131.525L64.5072 131.54L64.5203 131.547L64.5269 131.551L64.5303 131.553L64.532 131.554L64.5329 131.554C64.448 132.102 65.2763 126.789 64.925 129.038C64.7469 129.114 64.5595 129.213 64.3652 129.277C63.5919 129.585 62.7591 129.643 62.4234 129.6L62.3623 129.606C61.9947 129.582 61.5494 129.558 61.1882 129.633C61.0177 129.691 60.8323 129.763 60.6414 129.819L60.7942 130.051C60.6293 130 60.466 129.952 60.3797 129.998C59.9687 130.045 60.0995 130.283 60.1658 130.574C60.2374 130.712 60.0337 130.838 60.1718 130.992C60.0464 130.956 59.9869 130.931 59.8635 130.89C59.8128 130.989 60.2656 130.95 60.1242 131.091C60.0139 131.021 59.8586 131.039 59.7333 130.998C59.7263 131.149 60.1542 131.18 60.0925 131.308C60.0072 131.325 59.7951 131.018 59.7095 131.181C59.6922 131.213 59.8194 131.257 59.8831 131.279C59.4694 131.215 59.1811 131.296 59.482 131.599C59.351 131.556 59.2022 131.421 59.0577 131.399L59.0575 131.402C59.1223 131.43 59.2243 131.504 59.2859 131.528L59.0594 131.441L59.0708 131.524C59.12 131.564 59.1714 131.6 59.2308 131.623L59.079 131.565C59.0951 131.632 59.1186 131.7 59.1482 131.766C59.2877 131.939 59.4221 132.15 59.5261 132.187C60.3523 132.522 61.3094 132.746 62.2934 132.775L62.2946 132.776Z" fill="#D6EEF4"/>
</g>
<path id="Vector_46" opacity="0.5" fill-rule="evenodd" clip-rule="evenodd" d="M38.6481 152.936C38.1659 147.672 38.1119 141.49 38.4856 134.391C42.1825 127.204 42.2366 133.387 38.648 152.936H38.6481Z" fill="#D8FCFD"/>
<g id="Group_15" opacity="0.65">
<path id="Vector_47" opacity="0.65" fill-rule="evenodd" clip-rule="evenodd" d="M57.9501 132.673C57.0501 130.111 41.5035 128.588 38.5732 128.466C37.0142 128.401 37.2476 144.482 37.2518 145.959C37.2595 148.71 37.2117 151.505 37.5578 154.244C37.8962 156.923 42.8423 156.569 45.2966 156.921C46.4167 157.082 54.2789 158.984 52.9274 156.587C51.4788 154.018 49.9629 154.564 47.2049 154.736C46.5271 154.777 42.1741 153.407 42.1991 152.94C42.2069 152.79 44.9883 151.702 45.2527 151.505C46.7494 150.387 46.8174 148.885 46.6295 147.321C46.2401 144.075 47.1651 138.114 48.0781 135.658C48.8334 133.627 51.3796 141.03 51.3796 141.03C51.3796 141.03 49.545 145.728 50.5846 148.849C50.9305 149.887 51.7329 154.475 53.7807 154.137C56.4471 153.697 56.6619 151.347 56.8354 149.587C57.145 146.442 57.4282 143.295 57.6706 140.146C57.8373 137.976 58.6994 134.81 57.9502 132.674" fill="#D8FCFD"/>
</g>
<g id="Group_16" opacity="0.45">
<path id="Vector_48" opacity="0.45" d="M53.0851 137.312C53.1573 137.307 53.2216 137.239 53.2666 137.329C53.3754 137.614 53.1575 137.873 53.2542 138.16L53.3727 138.171C53.3457 138.403 53.3046 138.644 53.2739 138.889C53.3207 139.333 53.3842 139.774 53.4494 140.214C53.4915 140.201 53.5305 140.193 53.548 140.237C53.5868 140.419 53.5561 140.676 53.5547 140.94L53.5798 141.056C53.6063 141.086 53.6478 141.092 53.6731 141.096C53.6735 141.216 53.6686 141.323 53.6575 141.421C53.9133 142.714 54.1568 144.041 54.2913 145.498C54.3644 145.809 54.4374 146.124 54.4531 146.423C54.4406 146.863 54.2631 147.402 54.1806 147.819C54.6035 147.816 54.56 148.888 55.0153 148.769C54.9499 149.058 54.8044 149.483 54.9062 149.533C55.2127 149.684 55.5677 150.005 55.4628 150.875C55.3775 151.208 55.0364 151.639 55.0545 151.774C55.082 151.989 55.4564 151.456 55.4852 151.669C56.664 149.3 56.8249 146.969 56.989 144.624C56.9642 143.796 56.751 138.475 56.5578 137.114L56.5368 136.99C56.4699 136.245 56.3015 135.344 56.0269 134.738C55.873 134.465 55.7115 134.193 55.5301 133.922C55.4955 134.069 55.4544 134.205 55.4071 134.324C55.3619 134.03 55.295 133.733 55.1992 133.635C54.8847 133.046 54.7644 133.445 54.5419 133.731C54.4594 133.922 54.2234 133.732 54.1595 134.016C54.1228 133.827 54.1044 133.733 54.0679 133.544C53.9485 133.545 54.2573 134.11 54.0402 134.016C54.0419 133.828 53.9304 133.639 53.8884 133.454C53.7539 133.549 53.9776 134.109 53.8196 134.109C53.7616 134.017 53.9098 133.547 53.711 133.55C53.6719 133.551 53.7076 133.737 53.7256 133.83C53.5356 133.271 53.2588 133.026 53.193 133.565C53.1517 133.393 53.1651 133.131 53.0896 132.954L53.0869 132.957C53.1055 133.049 53.1091 133.215 53.1294 133.299L53.0552 132.988L52.9914 133.061C52.9891 133.143 52.9914 133.225 53.0104 133.305L52.9614 133.1L52.8324 133.315C52.777 133.583 52.6592 133.845 52.6815 133.982C52.8412 135.063 52.9632 136.19 53.0844 137.309L53.0851 137.312Z" fill="#DDFCFD"/>
</g>
</g>
<g id="Layer_1_5">
<path id="Vector_49" d="M116.529 128L132.206 132.288C132.206 132.288 132.934 150.337 132.117 157.507C125.748 155.73 114.722 151.639 114.722 151.639C114.722 151.639 97.8355 159.276 96.4093 158.156C94.9834 157.035 95.4692 130.92 95.4692 130.92L116.529 128L116.529 128Z" fill="#30EEFB"/>
<path id="Vector_50" d="M134.619 146.879C135.32 147.161 134.895 147.198 134.619 146.879V146.879Z" fill="#65F3FA"/>
<path id="Vector_51" d="M131.895 157.293C131.895 157.289 131.893 157.289 131.895 157.293Z" fill="#65F3FA"/>
<path id="Vector_52" d="M116.303 133.821C116.084 139.93 115.716 146.03 115.325 152.132C115.296 152.595 115.494 153.77 116.221 153.77C116.989 153.77 117.088 152.596 117.118 152.132C117.508 146.03 117.876 139.931 118.095 133.821C118.112 133.358 117.935 132.183 117.199 132.183C116.439 132.184 116.319 133.358 116.303 133.822V133.821Z" fill="#3EC3F7"/>
<path id="Vector_53" opacity="0.65" d="M116.638 128.03C119.275 128.855 132.587 131.307 132.518 132.281C132.469 132.963 117.508 135.425 116.485 135.128C110.201 133.305 101.688 131.229 95 131.233L116.637 128.03H116.638Z" fill="#D8FCFD"/>
<path id="Vector_54" d="M115.109 151.396C115.109 151.396 132.118 156.413 132.118 157.508C132.118 158.602 116.318 161.855 116.318 161.855C116.318 161.855 100.747 159.554 96.6673 157.931C92.5892 156.31 115.109 151.396 115.109 151.396L115.109 151.396Z" fill="#3EC3F7"/>
<g id="Group_17" opacity="0.4">
<path id="Vector_55" opacity="0.4" fill-rule="evenodd" clip-rule="evenodd" d="M131.859 132.608C130.199 133.079 117.242 134.83 117.19 135.669C116.912 140.194 116.726 144.728 116.698 149.261C116.682 151.847 116.678 154.457 116.982 157.032C117.001 157.193 117.698 160.907 118.498 159.622C119.596 157.858 118.163 154.144 117.833 152.297C117.407 149.91 118.194 147.742 119.126 145.482C120.62 141.863 124.089 144.121 123.926 147.319C123.809 149.596 122.175 152.541 121.674 154.86C121.342 156.397 120.907 158.966 122.165 160.324C123.281 161.529 128.518 158.598 129.577 158.083C134.238 155.817 132.81 151.541 132.783 147.24C132.764 144.223 132.714 141.205 132.567 138.191C132.508 136.996 132.902 133.574 131.857 132.61" fill="#D8FCFD"/>
</g>
<g id="Group_18" opacity="0.4">
<path id="Vector_56" opacity="0.4" fill-rule="evenodd" clip-rule="evenodd" d="M110.687 130.242C115.763 131.574 119.179 135.716 124.622 133.412C122.403 131.644 114.988 129.67 110.687 130.242H110.687Z" fill="#CAFCFC"/>
<path id="Vector_57" opacity="0.4" d="M121.295 135.776C121.297 135.71 121.247 135.644 121.328 135.613C121.576 135.544 121.787 135.773 122.039 135.687L122.049 135.579C122.246 135.611 122.457 135.655 122.672 135.673C123.053 135.61 123.421 135.509 123.768 135.383C123.748 135.348 123.733 135.315 123.764 135.292C123.901 135.224 124.12 135.212 124.327 135.152L124.41 135.105C124.425 135.076 124.417 135.039 124.412 135.016C124.505 134.989 124.59 134.972 124.67 134.958L124.997 134.745L125.157 134.636L125.197 134.609L125.217 134.595L125.22 134.594L125.22 134.593C125.371 133.629 124.884 136.751 125.558 132.431L125.556 132.431L125.55 132.428L125.538 132.422L125.439 132.378C125.175 132.268 124.907 132.133 124.651 132.068C124.134 131.9 123.622 131.793 123.1 131.694C122.855 131.699 122.615 131.707 122.408 131.669C122.112 131.595 121.781 131.403 121.511 131.288C121.402 131.651 120.669 131.607 120.661 132.01C120.486 131.945 120.224 131.843 120.172 131.942C120.018 132.233 119.751 132.543 119.228 132.593C119.035 132.58 118.795 132.379 118.711 132.425C118.578 132.498 118.877 132.703 118.745 132.775C120.035 133.242 121.356 133.545 122.485 134.102C122.613 134.109 122.841 134.199 123.133 134.331C123.214 134.363 123.259 134.401 123.329 134.438L123.429 134.495L123.481 134.525L123.507 134.54L123.52 134.547L123.527 134.551L123.53 134.553L123.532 134.554L123.533 134.554C123.448 135.102 124.276 129.789 123.925 132.038C123.747 132.114 123.559 132.213 123.365 132.277C122.592 132.585 121.759 132.643 121.423 132.6L121.362 132.606C120.995 132.582 120.549 132.558 120.188 132.633C120.018 132.691 119.832 132.763 119.641 132.819L119.794 133.051C119.629 133 119.466 132.952 119.38 132.998C118.969 133.045 119.099 133.283 119.166 133.574C119.237 133.712 119.034 133.838 119.172 133.992C119.046 133.956 118.987 133.931 118.864 133.89C118.813 133.989 119.266 133.95 119.124 134.091C119.014 134.021 118.859 134.039 118.733 133.998C118.726 134.149 119.154 134.18 119.092 134.308C119.007 134.325 118.795 134.018 118.709 134.181C118.692 134.213 118.819 134.257 118.883 134.279C118.469 134.215 118.181 134.296 118.482 134.599C118.351 134.556 118.202 134.421 118.058 134.399L118.057 134.402C118.122 134.43 118.224 134.504 118.286 134.528L118.059 134.441L118.071 134.524C118.12 134.564 118.171 134.6 118.231 134.623L118.079 134.565C118.095 134.632 118.119 134.7 118.148 134.766C118.288 134.939 118.422 135.15 118.526 135.187C119.352 135.522 120.309 135.746 121.293 135.775L121.295 135.776Z" fill="#D6EEF4"/>
</g>
<path id="Vector_58" opacity="0.5" fill-rule="evenodd" clip-rule="evenodd" d="M97.6481 155.936C97.1659 150.672 97.1119 144.49 97.4856 137.391C101.183 130.204 101.237 136.387 97.648 155.936H97.6481Z" fill="#D8FCFD"/>
<g id="Group_19" opacity="0.65">
<path id="Vector_59" opacity="0.65" fill-rule="evenodd" clip-rule="evenodd" d="M116.95 135.673C116.05 133.111 100.503 131.588 97.5732 131.466C96.0142 131.401 96.2476 147.482 96.2518 148.959C96.2595 151.71 96.2117 154.505 96.5578 157.244C96.8962 159.923 101.842 159.569 104.297 159.921C105.417 160.082 113.279 161.984 111.927 159.587C110.479 157.018 108.963 157.564 106.205 157.736C105.527 157.777 101.174 156.407 101.199 155.94C101.207 155.79 103.988 154.702 104.253 154.505C105.749 153.387 105.817 151.885 105.63 150.321C105.24 147.075 106.165 141.114 107.078 138.658C107.833 136.627 110.38 144.03 110.38 144.03C110.38 144.03 108.545 148.728 109.585 151.849C109.931 152.887 110.733 157.475 112.781 157.137C115.447 156.697 115.662 154.347 115.835 152.587C116.145 149.442 116.428 146.295 116.671 143.146C116.837 140.976 117.699 137.81 116.95 135.674" fill="#D8FCFD"/>
</g>
<g id="Group_20" opacity="0.45">
<path id="Vector_60" opacity="0.45" d="M112.085 140.312C112.157 140.307 112.222 140.239 112.267 140.329C112.375 140.614 112.157 140.873 112.254 141.16L112.373 141.171C112.346 141.403 112.305 141.644 112.274 141.889C112.321 142.333 112.384 142.774 112.449 143.214C112.492 143.201 112.53 143.193 112.548 143.237C112.587 143.419 112.556 143.676 112.555 143.94L112.58 144.056C112.606 144.086 112.648 144.092 112.673 144.096C112.673 144.216 112.669 144.323 112.657 144.421C112.913 145.714 113.157 147.041 113.291 148.498C113.364 148.809 113.437 149.124 113.453 149.423C113.441 149.863 113.263 150.402 113.181 150.819C113.604 150.816 113.56 151.888 114.015 151.769C113.95 152.058 113.804 152.483 113.906 152.533C114.213 152.684 114.568 153.005 114.463 153.875C114.378 154.208 114.036 154.639 114.054 154.774C114.082 154.989 114.456 154.456 114.485 154.669C115.664 152.3 115.825 149.969 115.989 147.624C115.964 146.796 115.751 141.475 115.558 140.114L115.537 139.99C115.47 139.245 115.302 138.344 115.027 137.738C114.873 137.465 114.711 137.193 114.53 136.922C114.495 137.069 114.454 137.205 114.407 137.324C114.362 137.03 114.295 136.733 114.199 136.635C113.885 136.046 113.764 136.445 113.542 136.731C113.459 136.922 113.223 136.732 113.16 137.016C113.123 136.827 113.104 136.733 113.068 136.544C112.948 136.545 113.257 137.11 113.04 137.016C113.042 136.828 112.93 136.639 112.888 136.454C112.754 136.549 112.978 137.109 112.82 137.109C112.762 137.017 112.91 136.547 112.711 136.55C112.672 136.551 112.708 136.737 112.726 136.83C112.536 136.271 112.259 136.026 112.193 136.565C112.152 136.393 112.165 136.131 112.09 135.954L112.087 135.957C112.105 136.049 112.109 136.215 112.129 136.299L112.055 135.988L111.991 136.061C111.989 136.143 111.991 136.225 112.01 136.305L111.961 136.1L111.832 136.315C111.777 136.583 111.659 136.845 111.681 136.982C111.841 138.063 111.963 139.19 112.084 140.309L112.085 140.312Z" fill="#DDFCFD"/>
</g>
</g>
</g>
</g>
</g>
<defs>
<linearGradient id="paint0_linear_36_17" x1="86" y1="2" x2="86" y2="268.844" gradientUnits="userSpaceOnUse">
<stop stop-color="#C4C4C4" stop-opacity="0"/>
<stop offset="1" stop-color="#9DF3FF" stop-opacity="0.7"/>
</linearGradient>
<linearGradient id="paint1_linear_36_17" x1="91" y1="136" x2="91" y2="263" gradientUnits="userSpaceOnUse">
<stop stop-color="#ACFBF1" stop-opacity="0.39"/>
<stop offset="1" stop-color="#5AFCDF" stop-opacity="0.96"/>
</linearGradient>
</defs>
</svg>
