<svg class="nacl-flask" viewBox="0 0 288 486" fill="none" xmlns="http://www.w3.org/2000/svg">
<g id="namak-ghol">
<g id="Group 1">
<g id="Beakers 1">
<g id="imagebot_2">
<path id="imagebot_9" fill-rule="evenodd" clip-rule="evenodd" d="M90.7638 2.48041L105.238 21.2067V139.843C95.5849 158.578 39.2594 298.074 8.68963 377.177C-0.96353 402.151 -0.937374 433.381 13.5433 458.357C23.196 477.091 40.0537 483.366 56.9642 483.366H230.744C247.65 483.366 264.501 477.091 274.158 458.357C288.639 433.381 288.666 402.151 279.007 377.177C251.669 298.076 219.479 218.942 192.125 139.843V21.2102L206.129 3.08846L206.606 2.48324H90.7693L90.7638 2.48041Z" fill="#D7E9FC"/>
<path id="imagebot_8" fill-rule="evenodd" clip-rule="evenodd" d="M90.1441 0.01139C89.5229 0.171264 89.0217 0.764268 88.8433 1.55065C88.6635 2.33707 88.8378 3.18693 89.2927 3.75674L103.256 21.8221V138.972C100.67 144.064 95.5944 155.717 88.6117 172.348C81.4899 189.313 72.585 210.974 63.0276 234.537C43.9129 281.648 22.1715 336.338 6.87785 375.906C-3.01681 401.515 -2.9716 433.627 11.8589 459.306C11.8766 459.341 11.8837 459.378 11.9015 459.413C21.9741 478.869 39.4799 485.302 56.6847 485.302H230.449C247.656 485.302 265.16 478.869 275.24 459.413C275.254 459.378 275.254 459.341 275.281 459.306C290.102 433.627 290.156 401.515 280.252 375.906C252.914 296.84 220.846 217.882 193.547 138.976V21.8221L207.033 4.36215L207.51 3.75639C207.987 3.12682 208.123 2.19025 207.865 1.37528C207.605 0.560208 206.992 0.0236216 206.311 0.0110375H90.483C90.3699 -0.00367917 90.2555 -0.00367917 90.1424 0.0110375L90.1441 0.01139ZM94.6136 4.41758H202.187L190.649 19.3427C190.322 19.7639 190.131 20.3402 190.145 20.9412V139.577C190.131 139.88 190.185 140.18 190.267 140.458C217.648 219.645 249.838 298.779 277.151 377.794L277.192 377.847C286.591 402.169 286.591 432.5 272.519 456.771C272.506 456.787 272.492 456.806 272.465 456.822C263.229 474.765 247.045 480.899 230.453 480.899H56.6865C40.0998 480.899 23.9112 474.765 14.6685 456.822C14.6548 456.806 14.6398 456.787 14.6262 456.771C0.55303 432.5 0.543495 402.169 9.94315 377.847C25.2206 338.314 46.9468 283.712 66.0507 236.619C75.6026 213.073 84.483 191.377 91.5924 174.442C98.7018 157.51 104.068 145.247 106.364 140.791C106.552 140.434 106.656 140.012 106.661 139.579V20.943C106.667 20.342 106.482 19.7657 106.151 19.3444L94.6139 4.41934L94.6136 4.41758Z" fill="#9FABB9"/>
<path id="pehleNMK" fill-rule="evenodd" clip-rule="evenodd" d="M73.2704 284C54.4044 315.792 50.702 372.067 30.8917 408.261C22.4198 423.727 22.4499 443.042 35.1566 458.508C43.6278 470.118 58.432 474 73.2704 474H225.727C240.564 474 255.376 470.118 263.846 458.508C276.552 443.042 276.578 423.727 268.108 408.261C247.823 366.849 246.956 325.411 225.727 284H101.54H73.2704Z" fill="#00FFE0" fill-opacity="0.33"/>
<path id="baadmeNMK" fill-rule="evenodd" clip-rule="evenodd" d="M32.5 400.531C17.944 418.339 26.8659 390.646 32.5 406C24.4193 415.309 31.6018 437.669 41.5 445.764C48.4869 452.24 54.6296 465.977 68.5 465.572L140.5 472.031L203 465.572C216.856 463.953 236.255 458.459 244 453.031C254.481 444.531 252.4 453.026 254 445.764C254 423.531 259 419.531 254 400.531H101H32.5Z" fill="#00FFE0" fill-opacity="0.51"/>
<path id="imagebot_5" fill-rule="evenodd" clip-rule="evenodd" d="M174.819 20.3949V141.565C205.537 225.62 236.406 309.637 267.042 393.723C275.611 419.984 264.932 450.579 246.391 464.027C229.854 478.392 209.502 472.84 190.894 473.828H151.375C174.956 469.897 199.012 469.157 222.28 463.093C237.55 456.924 256.118 445.927 257.057 422.046C258.011 396.559 245.656 374.988 239.077 351.953L168.008 141.565V20.3931L180.309 4.38071H187.175L174.819 20.3931V20.3949Z" fill="white"/>
<path id="imagebot_4" fill-rule="evenodd" clip-rule="evenodd" d="M113.074 20.3949V141.565C82.3508 225.62 45.3868 302.005 14.7543 386.11C6.18352 412.352 13.0515 447.796 30.0793 463.218C47.1072 474.234 41.9989 472.031 61.2445 474.92C74.4144 474.92 123.343 473.828 136.513 473.828C112.934 469.897 88.8745 469.157 65.6117 463.093C50.3329 456.924 31.7725 445.927 30.8394 422.046C29.8777 396.559 42.2359 374.988 48.81 351.953C72.5019 281.822 96.1937 211.694 119.886 141.565V20.3931L107.574 4.38071H100.719L113.074 20.3931V20.3949Z" fill="black" fill-opacity="0.17625"/>
</g>
</g>
<path id="10mM NaCl" d="M58.3145 339.778V364H53.5332V345.29L47.7891 347.116V343.348L57.7998 339.778H58.3145ZM82.4531 349.789V353.973C82.4531 355.788 82.2594 357.354 81.8721 358.671C81.4847 359.977 80.9258 361.05 80.1953 361.892C79.4759 362.722 78.6182 363.336 77.6221 363.734C76.626 364.133 75.5192 364.332 74.3018 364.332C73.3278 364.332 72.4202 364.21 71.5791 363.967C70.738 363.712 69.9798 363.319 69.3047 362.788C68.6406 362.257 68.0651 361.587 67.5781 360.779C67.1022 359.96 66.737 358.986 66.4824 357.857C66.2279 356.729 66.1006 355.434 66.1006 353.973V349.789C66.1006 347.974 66.2943 346.419 66.6816 345.124C67.0801 343.818 67.639 342.75 68.3584 341.92C69.0889 341.09 69.9521 340.481 70.9482 340.094C71.9443 339.695 73.0511 339.496 74.2686 339.496C75.2425 339.496 76.1445 339.623 76.9746 339.878C77.8158 340.121 78.5739 340.503 79.249 341.023C79.9242 341.544 80.4997 342.213 80.9756 343.032C81.4515 343.84 81.8167 344.809 82.0713 345.938C82.3258 347.055 82.4531 348.339 82.4531 349.789ZM77.6553 354.604V349.142C77.6553 348.267 77.6055 347.504 77.5059 346.851C77.4173 346.198 77.279 345.644 77.0908 345.19C76.9027 344.726 76.6702 344.349 76.3936 344.062C76.1169 343.774 75.8014 343.563 75.4473 343.431C75.0931 343.298 74.7002 343.231 74.2686 343.231C73.7262 343.231 73.2448 343.337 72.8242 343.547C72.4147 343.757 72.0661 344.095 71.7783 344.56C71.4906 345.013 71.2692 345.622 71.1143 346.386C70.9704 347.138 70.8984 348.057 70.8984 349.142V354.604C70.8984 355.478 70.9427 356.247 71.0312 356.911C71.1309 357.575 71.2747 358.145 71.4629 358.621C71.6621 359.086 71.8945 359.468 72.1602 359.767C72.4368 360.054 72.7523 360.265 73.1064 360.397C73.4717 360.53 73.8701 360.597 74.3018 360.597C74.833 360.597 75.3034 360.492 75.7129 360.281C76.1335 360.06 76.4876 359.717 76.7754 359.252C77.0742 358.776 77.2956 358.156 77.4395 357.393C77.5833 356.629 77.6553 355.699 77.6553 354.604ZM90.6875 349.756V364H85.8896V346.037H90.3887L90.6875 349.756ZM90.0234 354.388H88.6953C88.6953 353.137 88.8447 351.986 89.1436 350.935C89.4535 349.872 89.9017 348.953 90.4883 348.179C91.0859 347.393 91.8219 346.784 92.6963 346.353C93.5706 345.921 94.5833 345.705 95.7344 345.705C96.5312 345.705 97.2617 345.827 97.9258 346.07C98.5898 346.303 99.1598 346.674 99.6357 347.183C100.123 347.681 100.499 348.334 100.765 349.142C101.03 349.938 101.163 350.896 101.163 352.014V364H96.3818V352.545C96.3818 351.726 96.2712 351.095 96.0498 350.652C95.8285 350.21 95.513 349.9 95.1035 349.723C94.7051 349.546 94.2236 349.457 93.6592 349.457C93.0394 349.457 92.4971 349.584 92.0322 349.839C91.5785 350.093 91.2021 350.448 90.9033 350.901C90.6045 351.344 90.3831 351.864 90.2393 352.462C90.0954 353.06 90.0234 353.701 90.0234 354.388ZM100.715 353.84L99.0049 354.056C99.0049 352.882 99.1488 351.792 99.4365 350.785C99.7354 349.778 100.173 348.893 100.748 348.129C101.335 347.365 102.06 346.773 102.923 346.353C103.786 345.921 104.782 345.705 105.911 345.705C106.774 345.705 107.56 345.832 108.269 346.087C108.977 346.33 109.58 346.723 110.078 347.266C110.587 347.797 110.975 348.494 111.24 349.357C111.517 350.221 111.655 351.278 111.655 352.528V364H106.857V352.528C106.857 351.698 106.747 351.067 106.525 350.636C106.315 350.193 106.005 349.889 105.596 349.723C105.197 349.546 104.721 349.457 104.168 349.457C103.592 349.457 103.089 349.573 102.657 349.806C102.226 350.027 101.866 350.337 101.578 350.735C101.29 351.134 101.075 351.599 100.931 352.13C100.787 352.65 100.715 353.22 100.715 353.84ZM117.931 339.828H122.147L128.356 357.575L134.565 339.828H138.782L130.05 364H126.663L117.931 339.828ZM115.656 339.828H119.856L120.62 357.127V364H115.656V339.828ZM136.856 339.828H141.073V364H136.093V357.127L136.856 339.828ZM173.579 339.828V364H168.599L158.887 347.797V364H153.906V339.828H158.887L168.615 356.048V339.828H173.579ZM187.309 359.949V351.947C187.309 351.372 187.215 350.879 187.026 350.47C186.838 350.049 186.545 349.723 186.146 349.49C185.759 349.258 185.256 349.142 184.636 349.142C184.104 349.142 183.645 349.236 183.258 349.424C182.87 349.601 182.572 349.861 182.361 350.204C182.151 350.536 182.046 350.929 182.046 351.383H177.265C177.265 350.619 177.442 349.894 177.796 349.208C178.15 348.522 178.665 347.919 179.34 347.398C180.015 346.867 180.817 346.452 181.747 346.153C182.688 345.854 183.739 345.705 184.901 345.705C186.296 345.705 187.535 345.938 188.62 346.402C189.705 346.867 190.557 347.564 191.177 348.494C191.808 349.424 192.123 350.586 192.123 351.98V359.667C192.123 360.652 192.184 361.46 192.306 362.091C192.427 362.711 192.604 363.253 192.837 363.718V364H188.006C187.773 363.513 187.596 362.904 187.475 362.174C187.364 361.432 187.309 360.691 187.309 359.949ZM187.939 353.06L187.973 355.766H185.3C184.669 355.766 184.121 355.838 183.656 355.981C183.191 356.125 182.81 356.33 182.511 356.596C182.212 356.85 181.991 357.149 181.847 357.492C181.714 357.835 181.647 358.212 181.647 358.621C181.647 359.031 181.742 359.401 181.93 359.733C182.118 360.054 182.389 360.309 182.743 360.497C183.097 360.674 183.512 360.763 183.988 360.763C184.708 360.763 185.333 360.619 185.864 360.331C186.396 360.043 186.805 359.689 187.093 359.269C187.392 358.848 187.547 358.45 187.558 358.073L188.819 360.099C188.642 360.552 188.399 361.023 188.089 361.51C187.79 361.997 187.408 362.456 186.943 362.888C186.479 363.308 185.92 363.657 185.267 363.934C184.614 364.199 183.839 364.332 182.942 364.332C181.802 364.332 180.768 364.105 179.838 363.651C178.919 363.187 178.189 362.55 177.646 361.742C177.115 360.923 176.85 359.993 176.85 358.953C176.85 358.012 177.027 357.177 177.381 356.446C177.735 355.716 178.255 355.102 178.941 354.604C179.639 354.094 180.507 353.713 181.548 353.458C182.588 353.192 183.795 353.06 185.167 353.06H187.939ZM210.119 355.981H215.083C214.983 357.608 214.535 359.053 213.738 360.314C212.952 361.576 211.851 362.561 210.435 363.27C209.029 363.978 207.336 364.332 205.354 364.332C203.805 364.332 202.416 364.066 201.188 363.535C199.959 362.993 198.908 362.218 198.033 361.211C197.17 360.204 196.511 358.986 196.058 357.559C195.604 356.131 195.377 354.532 195.377 352.761V351.084C195.377 349.313 195.609 347.714 196.074 346.286C196.55 344.847 197.225 343.624 198.1 342.617C198.985 341.61 200.042 340.835 201.271 340.293C202.499 339.751 203.871 339.479 205.388 339.479C207.402 339.479 209.101 339.845 210.484 340.575C211.879 341.306 212.958 342.313 213.722 343.597C214.496 344.881 214.961 346.341 215.116 347.979H210.136C210.08 347.006 209.887 346.181 209.555 345.506C209.223 344.82 208.719 344.305 208.044 343.962C207.38 343.608 206.494 343.431 205.388 343.431C204.558 343.431 203.833 343.586 203.213 343.896C202.593 344.205 202.073 344.676 201.652 345.307C201.232 345.938 200.916 346.734 200.706 347.697C200.507 348.649 200.407 349.767 200.407 351.051V352.761C200.407 354.011 200.501 355.113 200.689 356.064C200.878 357.005 201.165 357.802 201.553 358.455C201.951 359.097 202.46 359.584 203.08 359.916C203.711 360.237 204.469 360.397 205.354 360.397C206.395 360.397 207.253 360.231 207.928 359.899C208.603 359.567 209.118 359.075 209.472 358.422C209.837 357.769 210.053 356.955 210.119 355.981ZM223.102 338.5V364H218.304V338.5H223.102Z" fill="black"/>
</g>
</g>
</svg>
