<svg width="288" height="486" viewBox="0 0 288 486" fill="none" xmlns="http://www.w3.org/2000/svg">
<g id="SDS sol">
<g id="Beakers 1">
<g id="imagebot_2">
<path id="imagebot_9" fill-rule="evenodd" clip-rule="evenodd" d="M90.7638 2.48041L105.238 21.2067V139.843C95.5849 158.578 39.2594 298.074 8.68963 377.177C-0.96353 402.151 -0.937374 433.381 13.5433 458.357C23.196 477.091 40.0537 483.366 56.9642 483.366H230.744C247.65 483.366 264.501 477.091 274.158 458.357C288.639 433.381 288.666 402.151 279.007 377.177C251.669 298.076 219.479 218.942 192.125 139.843V21.2102L206.129 3.08846L206.606 2.48324H90.7693L90.7638 2.48041Z" fill="#D7E9FC"/>
<path id="imagebot_8" fill-rule="evenodd" clip-rule="evenodd" d="M90.1441 0.01139C89.5229 0.171264 89.0217 0.764268 88.8433 1.55065C88.6635 2.33707 88.8378 3.18693 89.2927 3.75674L103.256 21.8221V138.972C100.67 144.064 95.5944 155.717 88.6117 172.348C81.4899 189.313 72.585 210.974 63.0276 234.537C43.9129 281.648 22.1715 336.338 6.87785 375.906C-3.01681 401.515 -2.9716 433.627 11.8589 459.306C11.8766 459.341 11.8837 459.378 11.9015 459.413C21.9741 478.869 39.4799 485.302 56.6847 485.302H230.449C247.656 485.302 265.16 478.869 275.24 459.413C275.254 459.378 275.254 459.341 275.281 459.306C290.102 433.627 290.156 401.515 280.252 375.906C252.914 296.84 220.846 217.882 193.547 138.976V21.8221L207.033 4.36215L207.51 3.75639C207.987 3.12682 208.123 2.19025 207.865 1.37528C207.605 0.560208 206.992 0.0236216 206.311 0.0110375H90.483C90.3699 -0.00367917 90.2555 -0.00367917 90.1424 0.0110375L90.1441 0.01139ZM94.6136 4.41758H202.187L190.649 19.3427C190.322 19.7639 190.131 20.3402 190.145 20.9412V139.577C190.131 139.88 190.185 140.18 190.267 140.458C217.648 219.645 249.838 298.779 277.151 377.794L277.192 377.847C286.591 402.169 286.591 432.5 272.519 456.771C272.506 456.787 272.492 456.806 272.465 456.822C263.229 474.765 247.045 480.899 230.453 480.899H56.6865C40.0998 480.899 23.9112 474.765 14.6685 456.822C14.6548 456.806 14.6398 456.787 14.6262 456.771C0.55303 432.5 0.543495 402.169 9.94315 377.847C25.2206 338.314 46.9468 283.712 66.0507 236.619C75.6026 213.073 84.483 191.377 91.5924 174.442C98.7018 157.51 104.068 145.247 106.364 140.791C106.552 140.434 106.656 140.012 106.661 139.579V20.943C106.667 20.342 106.482 19.7657 106.151 19.3444L94.6139 4.41934L94.6136 4.41758Z" fill="#9FABB9"/>
<path id="pehleSDS" fill-rule="evenodd" clip-rule="evenodd" d="M73.2704 284C54.4044 315.792 50.702 372.067 30.8917 408.261C22.4198 423.727 22.4499 443.042 35.1566 458.508C43.6278 470.118 58.432 474 73.2704 474H225.727C240.564 474 255.376 470.118 263.846 458.508C276.552 443.042 276.578 423.727 268.108 408.261C247.823 366.849 246.956 325.411 225.727 284H101.54H73.2704Z" fill="#00FFE0" fill-opacity="0.33"/>
<path id="baadmeSDS" fill-rule="evenodd" clip-rule="evenodd" d="M32.5 400.531C17.944 418.339 26.8659 390.646 32.5 406C24.4193 415.309 31.6018 437.669 41.5 445.764C48.4869 452.24 54.6296 465.977 68.5 465.572L140.5 472.031L203 465.572C216.856 463.953 236.255 458.459 244 453.031C254.481 444.531 252.4 453.026 254 445.764C254 423.531 259 419.531 254 400.531H101H32.5Z" fill="#00FFE0" fill-opacity="0.33"/>
<path id="imagebot_5" fill-rule="evenodd" clip-rule="evenodd" d="M174.819 20.3949V141.565C205.537 225.62 236.406 309.637 267.042 393.723C275.611 419.984 264.932 450.579 246.391 464.027C229.854 478.392 209.502 472.84 190.894 473.828H151.375C174.956 469.897 199.012 469.157 222.28 463.093C237.55 456.924 256.118 445.927 257.057 422.046C258.011 396.559 245.656 374.988 239.077 351.953L168.008 141.565V20.3931L180.309 4.38071H187.175L174.819 20.3931V20.3949Z" fill="white"/>
<path id="imagebot_4" fill-rule="evenodd" clip-rule="evenodd" d="M113.074 20.3949V141.565C82.3508 225.62 45.3868 302.005 14.7543 386.11C6.18352 412.352 13.0515 447.796 30.0793 463.218C47.1072 474.234 41.9989 472.031 61.2445 474.92C74.4144 474.92 123.343 473.828 136.513 473.828C112.934 469.897 88.8745 469.157 65.6117 463.093C50.3329 456.924 31.7725 445.927 30.8394 422.046C29.8777 396.559 42.2359 374.988 48.81 351.953C72.5019 281.822 96.1937 211.694 119.886 141.565V20.3931L107.574 4.38071H100.719L113.074 20.3931V20.3949Z" fill="black" fill-opacity="0.17625"/>
</g>
</g>
<path id="SDS (Sol II)" d="M71.7422 347.675C71.7422 347.243 71.6758 346.856 71.543 346.513C71.4212 346.159 71.1888 345.838 70.8457 345.55C70.5026 345.251 70.0212 344.958 69.4014 344.67C68.7816 344.382 67.9792 344.083 66.9941 343.773C65.8984 343.419 64.8581 343.021 63.873 342.578C62.8991 342.135 62.0358 341.621 61.2832 341.034C60.5417 340.437 59.9551 339.745 59.5234 338.959C59.1029 338.173 58.8926 337.26 58.8926 336.22C58.8926 335.213 59.1139 334.299 59.5566 333.48C59.9993 332.65 60.6191 331.942 61.416 331.355C62.2129 330.758 63.1536 330.299 64.2383 329.978C65.334 329.657 66.5348 329.496 67.8408 329.496C69.6227 329.496 71.1777 329.817 72.5059 330.459C73.834 331.101 74.8633 331.981 75.5938 333.099C76.3353 334.216 76.7061 335.495 76.7061 336.934H71.7588C71.7588 336.225 71.6094 335.605 71.3105 335.074C71.0228 334.532 70.5801 334.106 69.9824 333.796C69.3958 333.486 68.6543 333.331 67.7578 333.331C66.8945 333.331 66.1751 333.464 65.5996 333.729C65.0241 333.984 64.5924 334.333 64.3047 334.775C64.0169 335.207 63.873 335.694 63.873 336.236C63.873 336.646 63.9727 337.017 64.1719 337.349C64.3822 337.681 64.6921 337.991 65.1016 338.278C65.5111 338.566 66.0146 338.837 66.6123 339.092C67.21 339.346 67.9017 339.595 68.6875 339.839C70.0046 340.237 71.1611 340.686 72.1572 341.184C73.1644 341.682 74.0055 342.241 74.6807 342.86C75.3558 343.48 75.8649 344.183 76.208 344.969C76.5511 345.755 76.7227 346.646 76.7227 347.642C76.7227 348.693 76.5179 349.634 76.1084 350.464C75.6989 351.294 75.1068 351.997 74.332 352.572C73.5573 353.148 72.6331 353.585 71.5596 353.884C70.486 354.183 69.2852 354.332 67.957 354.332C66.7617 354.332 65.583 354.177 64.4209 353.867C63.2588 353.546 62.2018 353.065 61.25 352.423C60.3092 351.781 59.5566 350.962 58.9922 349.966C58.4277 348.97 58.1455 347.791 58.1455 346.43H63.1426C63.1426 347.182 63.2588 347.819 63.4912 348.339C63.7236 348.859 64.0501 349.28 64.4707 349.601C64.9023 349.922 65.4115 350.154 65.998 350.298C66.5957 350.442 67.2487 350.514 67.957 350.514C68.8203 350.514 69.5286 350.392 70.082 350.148C70.6465 349.905 71.0615 349.567 71.3271 349.136C71.6038 348.704 71.7422 348.217 71.7422 347.675ZM87.5303 354H82.2676L82.3008 350.115H87.5303C88.8363 350.115 89.9375 349.822 90.834 349.235C91.7305 348.638 92.4056 347.769 92.8594 346.629C93.3242 345.489 93.5566 344.111 93.5566 342.495V341.316C93.5566 340.077 93.4238 338.987 93.1582 338.046C92.9036 337.105 92.5218 336.314 92.0127 335.672C91.5036 335.03 90.8783 334.549 90.1367 334.228C89.3952 333.896 88.543 333.729 87.5801 333.729H82.168V329.828H87.5801C89.196 329.828 90.6735 330.105 92.0127 330.658C93.363 331.201 94.5306 331.981 95.5156 332.999C96.5007 334.017 97.2588 335.235 97.79 336.651C98.3324 338.057 98.6035 339.623 98.6035 341.35V342.495C98.6035 344.211 98.3324 345.777 97.79 347.193C97.2588 348.61 96.5007 349.827 95.5156 350.846C94.5417 351.853 93.374 352.633 92.0127 353.187C90.6624 353.729 89.1683 354 87.5303 354ZM85.0898 329.828V354H80.1094V329.828H85.0898ZM114.807 347.675C114.807 347.243 114.74 346.856 114.607 346.513C114.486 346.159 114.253 345.838 113.91 345.55C113.567 345.251 113.086 344.958 112.466 344.67C111.846 344.382 111.044 344.083 110.059 343.773C108.963 343.419 107.923 343.021 106.938 342.578C105.964 342.135 105.1 341.621 104.348 341.034C103.606 340.437 103.02 339.745 102.588 338.959C102.167 338.173 101.957 337.26 101.957 336.22C101.957 335.213 102.178 334.299 102.621 333.48C103.064 332.65 103.684 331.942 104.48 331.355C105.277 330.758 106.218 330.299 107.303 329.978C108.398 329.657 109.599 329.496 110.905 329.496C112.687 329.496 114.242 329.817 115.57 330.459C116.898 331.101 117.928 331.981 118.658 333.099C119.4 334.216 119.771 335.495 119.771 336.934H114.823C114.823 336.225 114.674 335.605 114.375 335.074C114.087 334.532 113.645 334.106 113.047 333.796C112.46 333.486 111.719 333.331 110.822 333.331C109.959 333.331 109.24 333.464 108.664 333.729C108.089 333.984 107.657 334.333 107.369 334.775C107.081 335.207 106.938 335.694 106.938 336.236C106.938 336.646 107.037 337.017 107.236 337.349C107.447 337.681 107.757 337.991 108.166 338.278C108.576 338.566 109.079 338.837 109.677 339.092C110.274 339.346 110.966 339.595 111.752 339.839C113.069 340.237 114.226 340.686 115.222 341.184C116.229 341.682 117.07 342.241 117.745 342.86C118.42 343.48 118.929 344.183 119.272 344.969C119.616 345.755 119.787 346.646 119.787 347.642C119.787 348.693 119.582 349.634 119.173 350.464C118.763 351.294 118.171 351.997 117.396 352.572C116.622 353.148 115.698 353.585 114.624 353.884C113.55 354.183 112.35 354.332 111.021 354.332C109.826 354.332 108.647 354.177 107.485 353.867C106.323 353.546 105.266 353.065 104.314 352.423C103.374 351.781 102.621 350.962 102.057 349.966C101.492 348.97 101.21 347.791 101.21 346.43H106.207C106.207 347.182 106.323 347.819 106.556 348.339C106.788 348.859 107.115 349.28 107.535 349.601C107.967 349.922 108.476 350.154 109.062 350.298C109.66 350.442 110.313 350.514 111.021 350.514C111.885 350.514 112.593 350.392 113.146 350.148C113.711 349.905 114.126 349.567 114.392 349.136C114.668 348.704 114.807 348.217 114.807 347.675ZM131.558 344.537V344.172C131.558 341.837 131.801 339.717 132.288 337.813C132.786 335.91 133.439 334.239 134.247 332.8C135.066 331.35 135.957 330.149 136.92 329.197C137.883 328.245 138.84 327.559 139.792 327.139L140.705 329.662C140.074 330.127 139.454 330.769 138.846 331.588C138.237 332.396 137.684 333.392 137.186 334.576C136.699 335.749 136.306 337.133 136.007 338.727C135.708 340.309 135.559 342.113 135.559 344.139V344.57C135.559 346.596 135.708 348.405 136.007 349.999C136.306 351.582 136.699 352.965 137.186 354.149C137.684 355.345 138.237 356.352 138.846 357.171C139.454 357.99 140.074 358.637 140.705 359.113L139.792 361.57C138.84 361.15 137.883 360.464 136.92 359.512C135.957 358.571 135.066 357.376 134.247 355.926C133.439 354.487 132.786 352.816 132.288 350.912C131.801 348.997 131.558 346.872 131.558 344.537ZM156.111 347.675C156.111 347.243 156.045 346.856 155.912 346.513C155.79 346.159 155.558 345.838 155.215 345.55C154.872 345.251 154.39 344.958 153.771 344.67C153.151 344.382 152.348 344.083 151.363 343.773C150.268 343.419 149.227 343.021 148.242 342.578C147.268 342.135 146.405 341.621 145.652 341.034C144.911 340.437 144.324 339.745 143.893 338.959C143.472 338.173 143.262 337.26 143.262 336.22C143.262 335.213 143.483 334.299 143.926 333.48C144.368 332.65 144.988 331.942 145.785 331.355C146.582 330.758 147.523 330.299 148.607 329.978C149.703 329.657 150.904 329.496 152.21 329.496C153.992 329.496 155.547 329.817 156.875 330.459C158.203 331.101 159.232 331.981 159.963 333.099C160.704 334.216 161.075 335.495 161.075 336.934H156.128C156.128 336.225 155.979 335.605 155.68 335.074C155.392 334.532 154.949 334.106 154.352 333.796C153.765 333.486 153.023 333.331 152.127 333.331C151.264 333.331 150.544 333.464 149.969 333.729C149.393 333.984 148.962 334.333 148.674 334.775C148.386 335.207 148.242 335.694 148.242 336.236C148.242 336.646 148.342 337.017 148.541 337.349C148.751 337.681 149.061 337.991 149.471 338.278C149.88 338.566 150.384 338.837 150.981 339.092C151.579 339.346 152.271 339.595 153.057 339.839C154.374 340.237 155.53 340.686 156.526 341.184C157.534 341.682 158.375 342.241 159.05 342.86C159.725 343.48 160.234 344.183 160.577 344.969C160.92 345.755 161.092 346.646 161.092 347.642C161.092 348.693 160.887 349.634 160.478 350.464C160.068 351.294 159.476 351.997 158.701 352.572C157.926 353.148 157.002 353.585 155.929 353.884C154.855 354.183 153.654 354.332 152.326 354.332C151.131 354.332 149.952 354.177 148.79 353.867C147.628 353.546 146.571 353.065 145.619 352.423C144.678 351.781 143.926 350.962 143.361 349.966C142.797 348.97 142.515 347.791 142.515 346.43H147.512C147.512 347.182 147.628 347.819 147.86 348.339C148.093 348.859 148.419 349.28 148.84 349.601C149.271 349.922 149.781 350.154 150.367 350.298C150.965 350.442 151.618 350.514 152.326 350.514C153.189 350.514 153.898 350.392 154.451 350.148C155.016 349.905 155.431 349.567 155.696 349.136C155.973 348.704 156.111 348.217 156.111 347.675ZM163.416 345.201V344.853C163.416 343.535 163.604 342.324 163.98 341.217C164.357 340.099 164.905 339.131 165.624 338.312C166.343 337.493 167.229 336.856 168.28 336.402C169.332 335.938 170.538 335.705 171.899 335.705C173.261 335.705 174.473 335.938 175.535 336.402C176.598 336.856 177.489 337.493 178.208 338.312C178.938 339.131 179.492 340.099 179.868 341.217C180.244 342.324 180.433 343.535 180.433 344.853V345.201C180.433 346.507 180.244 347.719 179.868 348.837C179.492 349.944 178.938 350.912 178.208 351.742C177.489 352.561 176.603 353.198 175.552 353.651C174.5 354.105 173.294 354.332 171.933 354.332C170.571 354.332 169.359 354.105 168.297 353.651C167.245 353.198 166.354 352.561 165.624 351.742C164.905 350.912 164.357 349.944 163.98 348.837C163.604 347.719 163.416 346.507 163.416 345.201ZM168.197 344.853V345.201C168.197 345.954 168.264 346.657 168.396 347.31C168.529 347.963 168.74 348.538 169.027 349.036C169.326 349.523 169.714 349.905 170.189 350.182C170.665 350.458 171.246 350.597 171.933 350.597C172.597 350.597 173.167 350.458 173.643 350.182C174.118 349.905 174.5 349.523 174.788 349.036C175.076 348.538 175.286 347.963 175.419 347.31C175.563 346.657 175.635 345.954 175.635 345.201V344.853C175.635 344.122 175.563 343.436 175.419 342.794C175.286 342.141 175.07 341.565 174.771 341.067C174.484 340.558 174.102 340.16 173.626 339.872C173.15 339.584 172.575 339.44 171.899 339.44C171.224 339.44 170.649 339.584 170.173 339.872C169.708 340.16 169.326 340.558 169.027 341.067C168.74 341.565 168.529 342.141 168.396 342.794C168.264 343.436 168.197 344.122 168.197 344.853ZM188.418 328.5V354H183.62V328.5H188.418ZM206.431 329.828V354H201.467V329.828H206.431ZM216.392 329.828V354H211.428V329.828H216.392ZM228.976 344.172V344.537C228.976 346.795 228.721 348.876 228.212 350.779C227.703 352.672 227.028 354.349 226.187 355.81C225.356 357.282 224.443 358.505 223.447 359.479C222.462 360.452 221.477 361.15 220.492 361.57L219.562 359.113C220.193 358.648 220.808 358.007 221.405 357.188C222.014 356.368 222.567 355.361 223.065 354.166C223.563 352.982 223.956 351.593 224.244 349.999C224.543 348.405 224.692 346.596 224.692 344.57V344.139C224.692 342.113 224.543 340.304 224.244 338.71C223.945 337.116 223.541 335.727 223.032 334.543C222.534 333.348 221.981 332.346 221.372 331.538C220.774 330.719 220.171 330.077 219.562 329.612L220.492 327.139C221.477 327.559 222.462 328.262 223.447 329.247C224.443 330.221 225.356 331.438 226.187 332.899C227.028 334.36 227.703 336.043 228.212 337.946C228.721 339.839 228.976 341.914 228.976 344.172Z" fill="black"/>
</g>
</svg>
