<svg width="22" height="183" viewBox="0 0 22 183" fill="none" xmlns="http://www.w3.org/2000/svg">
<path d="M0.0122404 3.76269C0.0186704 118.064 -0.0184097 34.5967 0.0122404 148.897C0.104803 170.983 7.36671 187.845 13.5991 180.546C18.5637 175.836 21.5438 158.209 20.9669 141.543V3.7604L0.0122404 3.76269Z" fill="#F0E8C8" fill-opacity="0.76"/>
<path d="M0.0123014 98.0011C0.0187315 152.179 -0.0183486 112.616 0.0123014 166.794C0.104864 177.262 7.36677 185.255 13.5991 181.795C18.5638 179.563 21.5439 171.208 20.967 163.308V98L0.0123014 98.0011Z" fill="#FFCC00"/>
<path d="M20.9202 97.7891C20.9202 98.9296 16.2495 99.8542 10.4881 99.8542C4.72647 99.8542 0.0560913 98.9296 0.0560913 97.7891C0.0560913 96.6486 4.72678 95.724 10.4881 95.724C16.2498 95.724 20.9202 96.6485 20.9202 97.7891Z" fill="url(#paint0_linear_3_68)"/>
<path d="M20.9125 3.96498C20.9125 6.15474 16.231 7.92996 10.4562 7.92996C4.68122 7.92996 0 6.15484 0 3.96498C0 1.77525 4.68153 0 10.4562 0C16.2313 0 20.9125 1.77512 20.9125 3.96498Z" fill="url(#paint1_linear_3_68)"/>
<path opacity="0.2" d="M4.56159 9.77868C4.56159 8.25403 3.99398 7.01804 3.2938 7.01804C2.59361 7.01804 2.026 8.25403 2.026 9.77868V163.365C2.026 164.89 2.59361 166.126 3.2938 166.126C3.99398 166.126 4.56159 164.89 4.56159 163.365V9.77868Z" fill="white"/>
<path opacity="0.25" d="M17.4909 168.615C15.6289 170.431 13.1884 171.544 10.5058 171.544C7.82333 171.544 5.38277 170.482 3.5207 168.665C3.32642 169.389 3.23364 170.146 3.23364 170.938C3.23364 175.373 6.4797 178.969 10.5057 178.969C14.5318 178.969 17.8097 175.373 17.8097 170.938C17.8097 170.123 17.6956 169.356 17.4907 168.615H17.4909Z" fill="url(#paint2_radial_3_68)"/>
<defs>
<linearGradient id="paint0_linear_3_68" x1="9.28886" y1="93.7161" x2="9.28886" y2="102.751" gradientUnits="userSpaceOnUse">
<stop stop-color="#D4AA00"/>
<stop offset="1" stop-color="#FFCC00"/>
</linearGradient>
<linearGradient id="paint1_linear_3_68" x1="9.2542" y1="-3.85513" x2="9.2542" y2="13.4919" gradientUnits="userSpaceOnUse">
<stop stop-color="#A4A4A4"/>
<stop offset="1" stop-color="#FEF5A6"/>
</linearGradient>
<radialGradient id="paint2_radial_3_68" cx="0" cy="0" r="1" gradientUnits="userSpaceOnUse" gradientTransform="translate(10.429 179.068) rotate(-57.3012) scale(10.8073 10.0957)">
<stop stop-color="white"/>
<stop offset="1" stop-color="white" stop-opacity="0"/>
</radialGradient>
</defs>
</svg>
